<svg width="91" height="82" viewBox="0 0 91 82" fill="none" xmlns="http://www.w3.org/2000/svg">
<rect width="91" height="82" fill="white"/>
<g clip-path="url(#clip0_148_9537)">
<path fill-rule="evenodd" clip-rule="evenodd" d="M27.2665 46.5805C25.4655 46.5805 23.7049 47.1146 22.2075 48.1152C20.71 49.1158 19.5428 50.5379 18.8536 52.2019C18.1644 53.8658 17.984 55.6967 18.3354 57.4631C18.6868 59.2296 19.554 60.8521 20.8275 62.1256C22.1011 63.3991 23.7236 64.2664 25.49 64.6178C27.2564 64.9691 29.0874 64.7888 30.7513 64.0996C32.4152 63.4104 33.8374 62.2432 34.838 60.7457C35.8386 59.2482 36.3727 57.4876 36.3727 55.6866C36.37 53.2723 35.4098 50.9577 33.7026 49.2505C31.9955 47.5434 29.6808 46.5831 27.2665 46.5805ZM28.204 60.4625V60.9865C28.204 61.2351 28.1053 61.4736 27.9295 61.6494C27.7536 61.8252 27.5152 61.924 27.2665 61.924C27.0179 61.924 26.7794 61.8252 26.6036 61.6494C26.4278 61.4736 26.329 61.2351 26.329 60.9865V60.4289C25.7522 60.2321 25.2513 59.8599 24.8965 59.3645C24.5416 58.869 24.3505 58.275 24.3499 57.6655C24.3499 57.4169 24.4487 57.1784 24.6245 57.0026C24.8003 56.8268 25.0388 56.728 25.2874 56.728C25.5361 56.728 25.7745 56.8268 25.9503 57.0026C26.1261 57.1784 26.2249 57.4169 26.2249 57.6655C26.2252 57.9418 26.3351 58.2067 26.5305 58.4021C26.7259 58.5974 26.9907 58.7073 27.267 58.7076C27.4717 58.7076 28.4938 58.6576 28.4938 57.6655C28.4938 56.6734 27.4717 56.6239 27.267 56.6239C25.4698 56.6239 24.1653 55.3966 24.1653 53.7066C24.1653 52.3279 25.0335 51.2566 26.3298 50.909V50.385C26.3298 50.1364 26.4286 49.8979 26.6044 49.7221C26.7802 49.5463 27.0187 49.4475 27.2673 49.4475C27.5159 49.4475 27.7544 49.5463 27.9302 49.7221C28.106 49.8979 28.2048 50.1364 28.2048 50.385V50.9437C28.7817 51.1402 29.2827 51.5122 29.6378 52.0075C29.9928 52.5029 30.1841 53.0968 30.1849 53.7062C30.1849 53.9549 30.0861 54.1933 29.9103 54.3692C29.7345 54.545 29.4961 54.6437 29.2474 54.6437C28.9988 54.6437 28.7603 54.545 28.5845 54.3692C28.4087 54.1933 28.3099 53.9549 28.3099 53.7062C28.3098 53.4298 28.1999 53.1648 28.0045 52.9693C27.8091 52.7738 27.5441 52.6638 27.2677 52.6635C27.0625 52.6635 26.041 52.7135 26.041 53.7062C26.041 54.699 27.0625 54.7484 27.2677 54.7484C29.065 54.7484 30.3695 55.9745 30.3695 57.6651C30.3684 59.0454 29.4999 60.1153 28.2038 60.4625H28.204ZM46.0335 12.3041C43.6228 12.3043 41.2662 13.0193 39.2618 14.3588C37.2573 15.6983 35.6951 17.6021 34.7727 19.8294C33.8502 22.0567 33.6089 24.5075 34.0794 26.872C34.5498 29.2364 35.7107 31.4083 37.4155 33.1129C39.1202 34.8175 41.2921 35.9784 43.6566 36.4487C46.021 36.919 48.4719 36.6776 50.6991 35.755C52.9264 34.8324 54.8301 33.2701 56.1695 31.2656C57.5088 29.2612 58.2237 26.9045 58.2238 24.4937C58.2201 21.2619 56.9345 18.1635 54.6492 15.8783C52.3639 13.5931 49.2654 12.3077 46.0335 12.3041ZM46.9711 14.224C49.3712 14.4463 51.6179 15.501 53.3224 17.2053C55.0268 18.9097 56.0816 21.1564 56.3041 23.5565H51.8845C51.6853 22.3252 51.1034 21.1878 50.2214 20.3058C49.3394 19.4238 48.2021 18.8419 46.9708 18.6426L46.9711 14.224ZM46.0335 34.8076C43.3772 34.8114 40.8218 33.79 38.8999 31.9563C36.978 30.1226 35.8378 27.618 35.717 24.9643C35.5961 22.3107 36.5039 19.7128 38.2511 17.712C39.9984 15.7111 42.4503 14.4617 45.096 14.224V18.6426C44.2121 18.7836 43.3716 19.1231 42.6376 19.6355C41.9037 20.1479 41.2954 20.82 40.8584 21.6012C40.4214 22.3824 40.1671 23.2525 40.1146 24.1461C40.0621 25.0397 40.2127 25.9336 40.5552 26.7606C40.8977 27.5876 41.4231 28.3263 42.092 28.9211C42.7609 29.516 43.5559 29.9515 44.4172 30.1951C45.2786 30.4387 46.184 30.4839 47.0653 30.3274C47.9466 30.1709 48.7811 29.8167 49.5059 29.2915L52.63 32.4156C50.7804 33.9629 48.4451 34.8097 46.0335 34.8076ZM53.9559 31.0899L50.8309 27.9649C51.3765 27.215 51.7374 26.3469 51.8843 25.4312H56.3035C56.1149 27.5124 55.2959 29.4864 53.9559 31.0899ZM72.1059 56.9475H69.3499C68.8602 56.9479 68.3907 57.1426 68.0443 57.4888C67.698 57.8351 67.5031 58.3045 67.5025 58.7943V68.5778C67.5031 69.0675 67.6979 69.5371 68.0442 69.8834C68.3906 70.2297 68.8601 70.4245 69.3499 70.425H72.1057C72.5955 70.4245 73.0652 70.2297 73.4116 69.8834C73.758 69.5371 73.953 69.0675 73.9537 68.5776V58.7943C73.9528 58.3045 73.7578 57.8351 73.4114 57.4889C73.065 57.1427 72.5954 56.948 72.1057 56.9475H72.1059ZM72.1059 49.9216H69.3499C68.8601 49.9221 68.3905 50.1169 68.0441 50.4632C67.6978 50.8096 67.503 51.2792 67.5025 51.769V54.525C67.5029 55.0149 67.6976 55.4846 68.044 55.831C68.3904 56.1775 68.86 56.3723 69.3499 56.3727H72.1057C72.5956 56.3722 73.0653 56.1774 73.4117 55.831C73.7582 55.4846 73.9531 55.0149 73.9537 54.525V51.769C73.953 51.2792 73.758 50.8096 73.4116 50.4633C73.0652 50.1169 72.5955 49.9222 72.1057 49.9216H72.1059ZM64.6572 63.9728H61.8999C61.4102 63.9734 60.9407 64.1683 60.5944 64.5146C60.2481 64.8609 60.0532 65.3304 60.0525 65.8201V68.5778C60.0533 69.0675 60.2481 69.5369 60.5944 69.8832C60.9407 70.2295 61.4102 70.4243 61.8999 70.425H64.6574C65.1472 70.4243 65.6166 70.2294 65.9629 69.8831C66.3092 69.5368 66.5041 69.0674 66.5048 68.5776V65.8201C66.5038 65.3305 66.3089 64.8612 65.9626 64.5149C65.6164 64.1687 65.1471 63.9737 64.6574 63.9728H64.6572ZM64.6572 56.9478H61.8999C61.4103 56.9484 60.9409 57.1432 60.5946 57.4894C60.2483 57.8355 60.0534 58.3049 60.0525 58.7945V61.5513C60.0531 62.0411 60.2479 62.5107 60.5942 62.8572C60.9405 63.2036 61.4101 63.3986 61.8999 63.3993H64.6574C65.1473 63.3986 65.6169 63.2036 65.9632 62.8572C66.3095 62.5107 66.5043 62.0411 66.5048 61.5513V58.7943C66.5039 58.3046 66.309 57.8353 65.9627 57.4891C65.6164 57.143 65.1471 56.9482 64.6574 56.9475L64.6572 56.9478ZM64.6572 49.9219H61.8999C61.4102 49.9226 60.9407 50.1174 60.5944 50.4637C60.2481 50.81 60.0532 51.2795 60.0525 51.7692V54.525C60.0531 55.0148 60.248 55.4844 60.5943 55.8308C60.9406 56.1771 61.4101 56.3721 61.8999 56.3727H64.6574C65.1472 56.372 65.6167 56.1771 65.9629 55.8307C66.3092 55.4843 66.504 55.0148 66.5045 54.525V51.769C66.5039 51.2793 66.309 50.8098 65.9627 50.4635C65.6164 50.1172 65.1469 49.9223 64.6572 49.9216V49.9219ZM57.2072 63.973H54.4499C53.9602 63.9737 53.4907 64.1686 53.1444 64.5149C52.7981 64.8612 52.6032 65.3306 52.6026 65.8204V68.578C52.6031 69.0677 52.798 69.5372 53.1443 69.8835C53.4906 70.2298 53.9602 70.4245 54.4499 70.425H57.2074C57.6972 70.4243 58.1667 70.2295 58.513 69.8832C58.8594 69.5369 59.0542 69.0674 59.0549 68.5776V65.8201C59.0542 65.3304 58.8594 64.8609 58.513 64.5146C58.1667 64.1683 57.6972 63.9734 57.2074 63.9728L57.2072 63.973ZM57.2072 56.948H54.4499C53.9602 56.9484 53.4907 57.1431 53.1443 57.4893C52.798 57.8356 52.6031 58.305 52.6026 58.7948V61.5513C52.6031 62.0411 52.7979 62.5107 53.1442 62.8572C53.4905 63.2036 53.9601 63.3986 54.4499 63.3993H57.2074C57.6973 63.3986 58.1669 63.2037 58.5132 62.8572C58.8596 62.5108 59.0544 62.0411 59.0549 61.5513V58.7943C59.0541 58.3046 58.8591 57.8353 58.5128 57.4891C58.1665 57.1429 57.6971 56.9482 57.2074 56.9475L57.2072 56.948ZM57.2072 49.9221H54.4499C53.9601 49.9226 53.4905 50.1174 53.1441 50.4637C52.7978 50.8101 52.603 51.2797 52.6026 51.7695V54.525C52.6029 55.0149 52.7977 55.4846 53.144 55.831C53.4904 56.1775 53.96 56.3723 54.4499 56.3727H57.2074C57.6973 56.3721 58.1668 56.1772 58.5132 55.8308C58.8595 55.4844 59.0543 55.0148 59.0549 54.525V51.769C59.0542 51.2792 58.8594 50.8097 58.513 50.4634C58.1667 50.1171 57.6972 49.9223 57.2074 49.9216L57.2072 49.9221ZM72.1057 42.3063H54.4499C53.96 42.3067 53.4903 42.5016 53.144 42.8481C52.7976 43.1946 52.6029 43.6643 52.6026 44.1543V47.4989C52.603 47.9887 52.7978 48.4583 53.1441 48.8047C53.4905 49.151 53.9601 49.3458 54.4499 49.3462H72.1057C72.5955 49.3457 73.0652 49.1509 73.4116 48.8046C73.758 48.4583 73.953 47.9887 73.9537 47.4989V44.1543C73.9531 43.6643 73.7583 43.1946 73.4118 42.8481C73.0654 42.5017 72.5956 42.3068 72.1057 42.3063ZM74.1124 39.175H67.3287V15.0062C67.3287 14.7576 67.2299 14.5192 67.0541 14.3433C66.8783 14.1675 66.6398 14.0687 66.3912 14.0687H62.3848V10.0625C62.3848 9.81386 62.286 9.5754 62.1102 9.39959C61.9344 9.22377 61.6959 9.125 61.4473 9.125H32.4032C32.1549 9.1252 31.9167 9.22355 31.7407 9.39862L22.4925 18.6486C22.4053 18.7354 22.336 18.8387 22.2888 18.9524C22.2416 19.0661 22.2174 19.188 22.2175 19.3111V44.1525C20.5104 44.8984 18.99 46.014 17.7662 47.4187C16.5424 48.8234 15.6456 50.4822 15.1405 52.2754C14.6354 54.0687 14.5346 55.9517 14.8453 57.7886C15.1561 59.6255 15.8707 61.3706 16.9376 62.8979C18.0045 64.4252 19.397 65.6967 21.0148 66.6206C22.6326 67.5445 24.4353 68.0979 26.2928 68.2408C28.1504 68.3836 30.0165 68.1124 31.7565 67.4467C33.4966 66.781 35.0672 65.7375 36.355 64.3913H49.2319V69.6611C49.2327 70.513 49.5713 71.3298 50.1736 71.9323C50.7759 72.5348 51.5925 72.8738 52.4444 72.8749H74.1124C74.9643 72.8738 75.781 72.5348 76.3832 71.9323C76.9855 71.3298 77.3242 70.513 77.3249 69.6611V42.3875C77.3239 41.5358 76.9851 40.7193 76.3829 40.1171C75.7806 39.5148 74.9641 39.176 74.1124 39.175ZM27.2665 66.4025C25.1469 66.4025 23.0748 65.774 21.3124 64.5964C19.55 63.4188 18.1763 61.745 17.3652 59.7867C16.554 57.8284 16.3418 55.6736 16.7554 53.5947C17.169 51.5157 18.1897 49.6062 19.6886 48.1074C21.1875 46.6086 23.0971 45.588 25.1761 45.1746C27.255 44.7611 29.4099 44.9735 31.3681 45.7848C33.3264 46.5961 35 47.9698 36.1775 49.7323C37.355 51.4949 37.9834 53.567 37.9832 55.6866C37.9798 58.5278 36.8497 61.2516 34.8406 63.2605C32.8316 65.2694 30.1077 66.3994 27.2665 66.4025ZM49.2319 57.5729H39.7168C39.9615 55.9508 39.8879 54.2966 39.4999 52.7028H49.2314L49.2319 57.5729ZM49.2319 50.8276H38.8827C38.2637 49.3564 37.3716 48.0157 36.2537 46.8764H49.2319V50.8276ZM29.371 41.05H49.5249C49.3316 41.4694 49.2316 41.9257 49.2319 42.3875V45.0013H33.921C32.4711 44.0958 30.8516 43.4956 29.1617 43.2375C27.4719 42.9794 25.7471 43.0687 24.0929 43.5V20.2478H32.4032C32.6518 20.2478 32.8903 20.149 33.0661 19.9732C33.2419 19.7973 33.3407 19.5589 33.3407 19.3103V11H60.5097V39.175H29.371C29.1224 39.175 28.8839 39.2738 28.7081 39.4496C28.5323 39.6254 28.4335 39.8639 28.4335 40.1125C28.4335 40.3611 28.5323 40.5996 28.7081 40.7754C28.8839 40.9512 29.1224 41.05 29.371 41.05ZM75.4499 69.6611C75.4496 70.0159 75.3086 70.356 75.0579 70.607C74.8071 70.8579 74.4672 70.9993 74.1124 71H52.4445C52.0897 70.9993 51.7497 70.8579 51.499 70.6068C51.2483 70.3558 51.1073 70.0156 51.107 69.6608V42.3875C51.1075 42.0329 51.2485 41.693 51.4993 41.4422C51.75 41.1915 52.09 41.0504 52.4445 41.05H74.1124C74.467 41.0504 74.807 41.1915 75.0577 41.4422C75.3084 41.693 75.4495 42.0329 75.4499 42.3875V69.6611Z" fill="#49264E"/>
</g>
<defs>
<clipPath id="clip0_148_9537">
<rect width="64" height="64" fill="white" transform="translate(14 9)"/>
</clipPath>
</defs>
</svg>
