<svg width="91" height="82" viewBox="0 0 91 82" fill="none" xmlns="http://www.w3.org/2000/svg">
<rect width="91" height="82" fill="white"/>
<path d="M43.5427 36.2191C43.5427 35.6669 43.9905 35.2191 44.5427 35.2191H47.4572C48.0095 35.2191 48.4572 35.6669 48.4572 36.2191C48.4572 36.7714 48.0095 37.2191 47.4572 37.2191H44.5427C43.9905 37.2191 43.5427 36.7714 43.5427 36.2191ZM44.5427 46.6315H47.4572C48.0095 46.6315 48.4572 46.1838 48.4572 45.6315C48.4572 45.0793 48.0095 44.6315 47.4572 44.6315H44.5427C43.9905 44.6315 43.5427 45.0793 43.5427 45.6315C43.5427 46.1838 43.9905 46.6315 44.5427 46.6315ZM77 54.6796V58.5704C77 58.9841 76.7452 59.355 76.3592 59.5036L74.4566 60.236C74.1719 61.2496 73.7679 62.2239 73.251 63.1436L74.0791 65.0083C74.247 65.3863 74.1649 65.8286 73.8724 66.1211L71.1213 68.8724C70.8288 69.1649 70.3861 69.2473 70.0083 69.0793L68.1444 68.2515C67.2246 68.7684 66.25 69.1722 65.2357 69.4572L64.5037 71.3592C64.3552 71.7454 63.9842 72.0001 63.5705 72.0001H59.6796C59.2659 72.0001 58.895 71.7454 58.7464 71.3594L58.014 69.4566C57.0005 69.1719 56.0262 68.768 55.1065 68.2511L53.2419 69.0793C52.8637 69.247 52.4215 69.165 52.129 68.8725L49.3776 66.1213C49.085 65.8286 49.0029 65.3863 49.1707 65.0083L49.9986 63.1444C49.5539 62.3531 49.1932 61.5207 48.9196 60.6577C47.9615 60.7184 46.9834 60.75 46 60.75C38.2719 60.75 30.4485 58.8156 30.4485 55.1185V40.75H28.4296C28.0159 40.75 27.645 40.4952 27.4964 40.1092L26.7641 38.2066C25.7505 37.9219 24.7762 37.518 23.8565 37.0011L21.9919 37.8293C21.6136 37.9971 21.1715 37.9149 20.8789 37.6224L18.1276 34.8713C17.8351 34.5788 17.753 34.1364 17.9209 33.7582L18.7486 31.8943C18.2319 30.9746 17.8279 30 17.5429 28.9858L15.6408 28.2536C15.2548 28.1051 15 27.7341 15 27.3204V23.4296C15 23.0159 15.2548 22.645 15.6408 22.4964L17.5433 21.7641C17.8279 20.7505 18.232 19.7761 18.7489 18.8562L17.9209 16.992C17.753 16.614 17.8351 16.1716 18.1276 15.879L20.8789 13.1276C21.1712 12.8352 21.6136 12.7528 21.9919 12.9209L23.8565 13.749C24.7762 13.2321 25.7505 12.8282 26.764 12.5435L27.4964 10.6408C27.6449 10.2548 28.0159 10 28.4296 10H32.3204C32.7341 10 33.105 10.2548 33.2536 10.6408L33.986 12.5435C34.9995 12.8282 35.9737 13.2321 36.8935 13.749L38.7581 12.9209C39.1363 12.753 39.5786 12.8351 39.871 13.1276L42.6224 15.8789C42.915 16.1714 42.9971 16.6138 42.8293 16.9919L42.0014 18.8558C42.4461 19.6471 42.8068 20.4794 43.0804 21.3422C44.0381 21.2816 45.0164 21.25 46 21.25C53.7281 21.25 61.5515 23.1844 61.5515 26.8814V41.25H63.5704C63.9841 41.25 64.355 41.5048 64.5036 41.8908L65.2359 43.7935C66.2492 44.0781 67.2235 44.4821 68.1435 44.999L70.0081 44.1709C70.3863 44.0031 70.8285 44.0852 71.1211 44.3776L73.8724 47.1289C74.1649 47.4215 74.247 47.8639 74.0791 48.2419L73.2514 50.1058C73.7684 51.0256 74.1723 52.0001 74.4571 53.0143L76.3592 53.7464C76.7452 53.8949 77 54.2659 77 54.6796ZM42.6224 34.8711L39.8711 37.6224C39.5785 37.9149 39.1363 37.9971 38.7581 37.8293L36.8943 37.0014C36.1331 37.4291 35.3339 37.7784 34.506 38.048C37.0516 39.2056 41.3601 39.9252 46 39.9252C54.8973 39.9252 59.5515 37.5611 59.5515 36.2938V29.7932C56.7352 31.5872 51.3453 32.5129 46 32.5129C44.7116 32.5129 43.4405 32.4601 42.2069 32.3568L42.8293 33.758C42.9971 34.1361 42.9149 34.5786 42.6224 34.8711ZM46 23.25C45.9108 23.25 45.8219 23.2521 45.7327 23.2526C45.7431 23.3105 45.75 23.3692 45.75 23.4295V27.3202C45.75 27.734 45.4952 28.1049 45.1092 28.2535L43.2065 28.9859C43.0722 29.4636 42.9106 29.9323 42.7241 30.391C43.7925 30.4713 44.8887 30.5128 46 30.5128C54.8973 30.5128 59.5515 28.1486 59.5515 26.8813C59.5515 25.6139 54.8973 23.25 46 23.25ZM29.1163 38.75H31.6339L32.3039 37.0093C32.4222 36.7015 32.6849 36.472 33.0056 36.3956C34.1722 36.118 35.2827 35.6578 36.306 35.0275C36.587 34.8545 36.9351 34.8313 37.2362 34.965L38.9424 35.7227L40.7225 33.9425L39.9645 32.2358C39.8308 31.9344 39.854 31.5864 40.0269 31.3056C40.6572 30.2819 41.1175 29.1716 41.3949 28.0061C41.4711 27.6854 41.7006 27.4227 42.0084 27.3044L43.75 26.6338V24.1161L42.0091 23.4461C41.7015 23.3278 41.4719 23.0653 41.3956 22.7444C41.1179 21.5778 40.6576 20.4673 40.0274 19.444C39.8544 19.1631 39.8311 18.8151 39.9649 18.5136L40.7226 16.8076L38.9424 15.0274L37.2355 15.7854C36.9344 15.9193 36.5861 15.896 36.3054 15.723C35.2817 15.0928 34.1716 14.6324 33.0059 14.355C32.6852 14.2786 32.4226 14.0491 32.3043 13.7414L31.6336 12H29.1161L28.4458 13.7414C28.3274 14.049 28.0648 14.2786 27.7441 14.355C26.5786 14.6324 25.4685 15.0926 24.4446 15.7231C24.1636 15.896 23.8156 15.9193 23.5145 15.7855L21.8075 15.0274L20.0274 16.8076L20.7853 18.5141C20.919 18.8155 20.8958 19.1635 20.7229 19.4443C20.0924 20.4681 19.6321 21.5784 19.3548 22.7441C19.2785 23.0649 19.049 23.3275 18.7413 23.4459L17 24.1163V26.6339L18.7409 27.3039C19.0485 27.4222 19.2781 27.6847 19.3544 28.0056C19.6321 29.1722 20.0924 30.2828 20.7225 31.3061C20.8955 31.587 20.9187 31.935 20.785 32.2364L20.0272 33.9425L21.8074 35.7226L23.5142 34.9646C23.8154 34.8309 24.1636 34.8541 24.4444 35.0271C25.468 35.6574 26.5781 36.1177 27.744 36.3951C28.0646 36.4715 28.3273 36.701 28.4456 37.0088L29.1163 38.75ZM32.4485 45.7061C32.4485 46.9735 37.1027 49.3376 46 49.3376C47.2227 49.3376 48.4255 49.2879 49.5924 49.1911L49.1707 48.2419C49.0029 47.8639 49.085 47.4215 49.3775 47.129L52.1287 44.3776C52.4212 44.085 52.8636 44.0026 53.2417 44.1707L55.1064 44.9989C56.0263 44.482 57.0006 44.0781 58.014 43.7934L58.7464 41.8906C58.8794 41.5451 59.1909 41.3063 59.5514 41.2598V39.2055C56.7351 40.9995 51.3451 41.9251 45.9999 41.9251C40.8826 41.9251 36.2215 41.1008 33.3976 39.7345L33.2535 40.109C33.1205 40.4546 32.8089 40.6934 32.4484 40.74L32.4485 45.7061ZM46 58.75C46.0892 58.75 46.1781 58.7479 46.2674 58.7474C46.257 58.6895 46.25 58.6307 46.25 58.5705V56.0439H44.5427C43.9905 56.0439 43.5427 55.5961 43.5427 55.0439C43.5427 54.4916 43.9905 54.0439 44.5427 54.0439H46.4815C46.5886 53.9144 46.7268 53.8095 46.8908 53.7464L48.7933 53.0141C48.9668 52.3966 49.185 51.794 49.4455 51.209C48.3217 51.294 47.1691 51.3376 46 51.3376C40.6547 51.3376 35.2647 50.412 32.4485 48.618V55.1185C32.4485 56.3859 37.1027 58.75 46 58.75ZM75 55.3662L73.2591 54.6961C72.9514 54.5778 72.7219 54.3151 72.6455 53.9944C72.368 52.8281 71.9079 51.7176 71.2775 50.694C71.1045 50.4133 71.0813 50.0652 71.215 49.7639L71.9728 48.0578L70.1926 46.2776L68.4857 47.0356C68.1846 47.1695 67.8366 47.1463 67.5556 46.9733C66.5318 46.3429 65.4215 45.8825 64.2561 45.6053C63.9354 45.529 63.6727 45.2995 63.5544 44.9917L62.8838 43.25H60.3662L59.6959 44.9915C59.5775 45.2993 59.3149 45.5287 58.9941 45.605C57.8288 45.8824 56.7185 46.3426 55.6946 46.973C55.4136 47.146 55.0656 47.1692 54.7645 47.0354L53.0578 46.2774L51.2775 48.0576L52.0354 49.7641C52.1691 50.0655 52.1459 50.4135 51.973 50.6942C51.3425 51.718 50.8822 52.8282 50.6049 53.994C50.5286 54.3147 50.2991 54.5774 49.9914 54.6958L48.4231 55.2995C48.3889 55.4291 48.3295 55.5483 48.2501 55.6516V57.8838L49.9909 58.5537C50.2986 58.6721 50.5282 58.9347 50.6045 59.2554C50.8822 60.4222 51.3425 61.5326 51.9728 62.5559C52.1458 62.8367 52.169 63.1848 52.0353 63.4861L51.2775 65.1922L53.0578 66.9724L54.7646 66.2144C55.0658 66.0806 55.414 66.1037 55.6948 66.2767C56.7184 66.9071 57.8285 67.3674 58.9943 67.6447C59.315 67.721 59.5776 67.9505 59.696 68.2583L60.3664 70H62.884L63.554 68.2593C63.6724 67.9515 63.935 67.7219 64.2556 67.6456C65.4221 67.3679 66.5328 66.9076 67.5563 66.2774C67.837 66.1044 68.1852 66.0813 68.4864 66.215L70.1924 66.9728L71.9725 65.1926L71.2145 63.4857C71.0808 63.1844 71.104 62.8364 71.2769 62.5556C71.9072 61.5321 72.3675 60.4219 72.645 59.256C72.7213 58.9354 72.9507 58.6727 73.2585 58.5544L75 57.8838V55.3662ZM70.0036 56.625C70.0036 61.245 66.245 65.0036 61.625 65.0036C57.005 65.0036 53.2464 61.245 53.2464 56.625C53.2464 52.005 57.005 48.2464 61.625 48.2464C66.245 48.2464 70.0036 52.005 70.0036 56.625ZM68.0036 56.625C68.0036 53.1077 65.1421 50.2464 61.625 50.2464C58.1079 50.2464 55.2464 53.1077 55.2464 56.625C55.2464 60.1423 58.1079 63.0036 61.625 63.0036C65.1421 63.0036 68.0036 60.1423 68.0036 56.625ZM30.375 33.7536C25.755 33.7536 21.9964 29.995 21.9964 25.375C21.9964 20.755 25.755 16.9964 30.375 16.9964C34.995 16.9964 38.7536 20.755 38.7536 25.375C38.7536 29.995 34.995 33.7536 30.375 33.7536ZM36.7536 25.375C36.7536 21.8577 33.8921 18.9964 30.375 18.9964C26.8579 18.9964 23.9964 21.8577 23.9964 25.375C23.9964 28.8923 26.8579 31.7536 30.375 31.7536C33.8921 31.7536 36.7536 28.8923 36.7536 25.375ZM48.548 17.4195H69.0798V34.9806L68.509 34.1394C68.1987 33.6823 67.5767 33.5634 67.1201 33.8734C66.6631 34.1835 66.544 34.8054 66.854 35.2624L69.2524 38.7971C69.4385 39.0714 69.7485 39.2356 70.0799 39.2356C70.4113 39.2356 70.7213 39.0715 70.9074 38.7971L73.3058 35.2624C73.6158 34.8054 73.4966 34.1835 73.0396 33.8734C72.5829 33.5635 71.9607 33.6823 71.6507 34.1394L71.08 34.9806V16.4195C71.08 15.8672 70.6323 15.4195 70.08 15.4195H48.548C47.9958 15.4195 47.548 15.8672 47.548 16.4195C47.548 16.9717 47.9958 17.4195 48.548 17.4195ZM43.327 64.5805H22.7952V47.0194L23.366 47.8606C23.5595 48.1456 23.874 48.2993 24.1944 48.2993C24.3878 48.2993 24.583 48.2434 24.755 48.1266C25.2119 47.8166 25.331 47.1946 25.021 46.7376L22.6226 43.203C22.4365 42.9287 22.1265 42.7645 21.7951 42.7645C21.4638 42.7645 21.1538 42.9287 20.9676 43.203L18.5693 46.7376C18.2593 47.1946 18.3784 47.8166 18.8352 48.1266C19.292 48.4365 19.9141 48.3176 20.2242 47.8606L20.795 47.0194V65.5804C20.795 66.1326 21.2428 66.5804 21.795 66.5804H43.3267C43.879 66.5804 44.3267 66.1326 44.3267 65.5804C44.3267 65.0281 43.8792 64.5805 43.327 64.5805Z" fill="#49264E"/>
</svg>
