<svg width="91" height="82" viewBox="0 0 91 82" fill="none" xmlns="http://www.w3.org/2000/svg">
<rect width="91" height="82" fill="white"/>
<path d="M50.6936 24.0687H53.9747C54.4581 24.0687 54.8499 23.6768 54.8499 23.1935V19.9123C54.8499 19.429 54.458 19.0371 53.9747 19.0371H50.6936C50.2102 19.0371 49.8185 19.429 49.8185 19.9123V23.1935C49.8185 23.6768 50.2104 24.0687 50.6936 24.0687ZM51.5687 20.7876H53.0995V22.3182H51.5687V20.7876ZM70.3874 47.7556C70.3874 48.239 69.9955 48.6308 69.5122 48.6308H65.6322C65.1489 48.6308 64.7571 48.239 64.7571 47.7556V42.5717C64.7571 42.0883 65.149 41.6965 65.6322 41.6965C66.1155 41.6965 66.5074 42.0883 66.5074 42.5717V46.8803H69.5121C69.9955 46.8803 70.3872 47.2722 70.3872 47.7556H70.3874ZM56.6145 24.0687H59.8991C60.3825 24.0687 60.7742 23.6768 60.7742 23.1935V19.9123C60.7742 19.429 60.3824 19.0371 59.8991 19.0371H56.6145C56.1311 19.0371 55.7394 19.429 55.7394 19.9123V23.1935C55.7394 23.6768 56.1312 24.0687 56.6145 24.0687ZM57.4897 20.7876H59.024V22.3182H57.4897V20.7876ZM69.3385 37.1378V24.051C69.3385 21.9096 67.598 20.1675 65.4586 20.1675H63.7011C63.6995 19.8467 63.7126 19.3838 63.6649 19.0708C63.4911 17.6731 62.5061 16.4486 61.1992 15.9603C60.7605 15.7922 60.2911 15.7076 59.8212 15.7066C58.8256 15.7301 19.7125 15.6655 18.6206 15.7258C17.3335 15.8463 16.1459 16.6578 15.5596 17.8086C15.2772 18.3552 15.128 18.9457 15.126 19.5866V45.3606C15.126 47.5 16.8665 49.2406 19.006 49.2406H20.7139C20.5035 51.6508 22.1227 53.701 24.5974 53.7371H39.2631V58.2086H32.7966C30.5654 58.2086 28.7501 60.0238 28.7501 62.2551V65.4263C28.7501 65.9097 29.142 66.3016 29.6252 66.3016H60.4307C60.9141 66.3016 61.3059 65.9097 61.3059 65.4263V62.2551C61.3059 60.0238 59.4906 58.2086 57.2594 58.2086H50.7892V53.7371H56.1165C62.0452 63.1585 76.8157 59.0397 76.875 47.7557C76.875 42.8531 73.7222 38.6737 69.3384 37.1381L69.3385 37.1378ZM63.7011 21.9178H65.4586C66.6329 21.9178 67.5881 22.8747 67.5881 24.0508V36.6798C66.3321 36.4545 64.958 36.4531 63.7011 36.6757V21.9178ZM16.8834 19.4311C16.9639 18.3221 17.8914 17.4568 19.0059 17.4568H59.8211C60.9384 17.4568 61.8662 18.3216 61.9436 19.43V25.0571H42.9747L41.0796 22.5957C40.9137 22.3803 40.6574 22.2542 40.3855 22.2545L16.8832 22.2716V19.4312L16.8834 19.4311ZM57.2594 59.9588C58.5254 59.9588 59.5555 60.9887 59.5555 62.2548V64.5508H30.5004V62.2548C30.5004 60.9887 31.5304 59.9588 32.7965 59.9588H57.2594ZM41.0132 58.2083V53.7368H49.0389V58.2083H41.0132ZM49.9141 51.9863C44.0846 51.9876 30.5521 51.9855 24.5971 51.9863C23.4211 51.9863 22.4641 51.0295 22.4641 49.8533V49.2405H54.4875C54.6145 50.1988 54.8629 51.1193 55.2164 51.9865H49.9141V51.9863ZM54.3926 47.4898H19.0059C17.8316 47.4898 16.8762 46.5345 16.8762 45.3603V24.022L39.9556 24.0051L41.8505 26.4662C42.0162 26.6815 42.2724 26.8075 42.544 26.8075H61.9507V37.129C57.6335 38.6298 54.5045 42.693 54.3926 47.4897V47.4898ZM65.6322 57.2482C60.398 57.2482 56.1397 52.99 56.1397 47.7557C56.617 35.1753 74.6495 35.1787 75.1249 47.7557C75.1249 52.9898 70.8665 57.2481 65.6322 57.2481V57.2482ZM44.7692 24.0687H48.0539C48.5372 24.0687 48.929 23.6768 48.929 23.1935V19.9123C48.929 19.429 48.5371 19.0371 48.0539 19.0371H44.7692C44.2859 19.0371 43.8941 19.429 43.8941 19.9123V23.1935C43.8941 23.6768 44.286 24.0687 44.7692 24.0687ZM45.6444 20.7876H47.1786V22.3182H45.6444V20.7876ZM49.3932 39.1845C49.3932 39.6678 49.0014 40.0597 48.5181 40.0597H40.4996C40.0162 40.0597 39.6245 39.6678 39.6245 39.1845C39.6245 38.7011 40.0164 38.3092 40.4996 38.3092H48.5181C49.0015 38.3092 49.3932 38.7011 49.3932 39.1845ZM49.3932 43.2556C49.3932 43.739 49.0014 44.1308 48.5181 44.1308H40.4996C40.0162 44.1308 39.6245 43.739 39.6245 43.2556C39.6245 42.7722 40.0164 42.3803 40.4996 42.3803H48.5181C49.0015 42.3803 49.3932 42.7722 49.3932 43.2556ZM32.7262 34.7083C35.9059 30.6712 31.7177 25.0098 26.9222 26.8858C21.5029 25.9177 18.6464 32.8381 23.126 36.0012L22.3879 42.6488C22.3591 42.9081 22.4476 43.167 22.6291 43.3543L23.9544 44.7221C24.2475 45.0247 24.7135 45.0742 25.0624 44.8452L26.6534 43.8035C26.8719 43.6603 27.015 43.4273 27.0439 43.1678L27.7824 36.5181C27.7932 36.5138 27.8036 36.5086 27.8144 36.5042C28.0179 36.545 28.2244 36.575 28.4335 36.5902L31.1196 42.7177C31.2244 42.9567 31.4304 43.1365 31.6814 43.208L33.5096 43.7288C33.9042 43.8435 34.3415 43.6591 34.5302 43.2825L35.3912 41.5817C35.5094 41.3485 35.517 41.0745 35.412 40.835L32.7261 34.7083H32.7262ZM25.3496 42.5651L24.7085 42.9848L24.1731 42.4322L24.9284 35.6356C24.9689 35.2736 24.781 34.9246 24.4566 34.7588C22.023 33.5286 22.106 29.9727 24.5476 28.8538C23.0581 31.0831 23.743 34.3965 26.0991 35.8151L25.3496 42.5651ZM33.2947 41.8476L32.5572 41.6375L29.8101 35.371C29.6637 35.0373 29.3262 34.8326 28.9624 34.8483C27.6052 34.9216 26.3251 34.1302 25.7782 32.8846C24.1874 28.828 29.8967 26.3223 31.8027 30.2433C32.3475 31.4928 32.06 32.9686 31.0874 33.9152C30.826 34.1697 30.7497 34.5596 30.8962 34.8938L33.6431 41.1593L33.2947 41.8476ZM29.1825 30.3291C29.3735 31.4701 27.7275 31.7971 27.4662 30.6702C27.277 29.5291 28.9226 29.2022 29.1825 30.3291ZM54.2085 35.1131C54.2085 35.5965 53.8166 35.9883 53.3334 35.9883H40.4995C40.0161 35.9883 39.6244 35.5965 39.6244 35.1131C39.6244 34.6297 40.0162 34.2378 40.4995 34.2378H53.3334C53.8167 34.2378 54.2085 34.6297 54.2085 35.1131ZM54.2085 31.0418C54.2085 31.5252 53.8166 31.9171 53.3334 31.9171H40.4995C40.0161 31.9171 39.6244 31.5252 39.6244 31.0418C39.6244 30.5585 40.0162 30.1666 40.4995 30.1666H53.3334C53.8167 30.1666 54.2085 30.5585 54.2085 31.0418Z" fill="#CF8772"/>
</svg>
