<svg width="91" height="82" viewBox="0 0 91 82" fill="none" xmlns="http://www.w3.org/2000/svg">
<rect width="91" height="82" fill="white"/>
<path d="M58.2109 21.667C47.5509 21.667 38.8779 30.34 38.8779 41C38.8779 51.66 47.5509 60.333 58.2109 60.333C68.8709 60.333 77.5449 51.66 77.5449 41C77.5449 30.34 68.8719 21.667 58.2109 21.667ZM54.7139 49.371C54.2449 49.283 53.8119 49.17 53.4129 49.031C52.9119 48.856 52.5719 48.386 52.5719 47.855V46.202C52.5719 45.705 53.1139 45.398 53.5399 45.654C53.9319 45.888 54.3399 46.082 54.7639 46.234C55.5529 46.516 56.3499 46.657 57.1549 46.657C57.2089 46.657 57.2609 46.657 57.3139 46.655C57.7189 46.647 58.0779 46.605 58.3909 46.53C58.6649 46.464 58.9039 46.378 59.1069 46.271C59.1649 46.241 59.2199 46.209 59.2719 46.176C59.5079 46.025 59.6839 45.847 59.7999 45.642C59.9159 45.437 59.9749 45.214 59.9749 44.975C59.9749 44.65 59.8819 44.361 59.6959 44.105C59.5449 43.897 59.3489 43.702 59.1069 43.52C59.0519 43.477 58.9949 43.437 58.9359 43.397C58.6149 43.181 58.2339 42.972 57.7929 42.771C57.6369 42.7 57.4769 42.629 57.3139 42.556C57.0129 42.425 56.6959 42.291 56.3659 42.155C55.0669 41.614 54.0969 40.953 53.4589 40.172C52.8209 39.391 52.5019 38.447 52.5019 37.342C52.5019 36.476 52.6769 35.731 53.0249 35.108C53.3729 34.486 53.8459 33.973 54.4449 33.571C55.0449 33.169 55.7389 32.873 56.5279 32.683C56.7849 32.621 57.0469 32.57 57.3139 32.529V31.282H59.1069V32.399C59.9439 32.402 60.6869 32.455 61.3379 32.556C61.6499 32.605 61.9519 32.666 62.2429 32.74C62.7969 32.88 63.1879 33.376 63.1879 33.947V35.406C63.1879 35.875 62.7049 36.188 62.2769 35.996C61.9479 35.849 61.6099 35.727 61.2619 35.631C60.9139 35.535 60.5679 35.463 60.2229 35.416C59.8789 35.37 59.5529 35.347 59.2439 35.347C59.1979 35.347 59.1519 35.347 59.1069 35.349C58.7339 35.356 58.3929 35.396 58.0829 35.469C57.7879 35.537 57.5309 35.63 57.3139 35.748C57.2749 35.768 57.2379 35.789 57.2009 35.812C56.9619 35.959 56.7759 36.134 56.6449 36.339C56.5129 36.544 56.4469 36.774 56.4469 37.03C56.4469 37.309 56.5209 37.557 56.6669 37.778C56.8149 37.998 57.0229 38.208 57.2939 38.405C57.3009 38.409 57.3069 38.415 57.3139 38.42C57.5799 38.611 57.9029 38.801 58.2799 38.985C58.5339 39.11 58.8089 39.237 59.1069 39.367C59.2629 39.434 59.4239 39.502 59.5909 39.572C60.2569 39.851 60.8549 40.146 61.3839 40.46C61.9129 40.773 62.3679 41.127 62.7469 41.521C63.1249 41.916 63.4149 42.366 63.6169 42.873C63.8179 43.38 63.9189 43.969 63.9189 44.642C63.9189 45.57 63.7429 46.349 63.3909 46.979C63.0399 47.609 62.5619 48.121 61.9579 48.51C61.3549 48.901 60.6529 49.182 59.8529 49.352C59.6089 49.403 59.3609 49.448 59.1079 49.483V50.724H57.3149V49.607C56.4029 49.602 55.5359 49.525 54.7139 49.371ZM57.9919 57.175H57.3549V55.023H57.9919C65.7239 55.023 72.0139 48.733 72.0139 41.001C72.0139 33.269 65.7239 26.979 57.9919 26.979H57.3549V24.826H57.9919C66.9109 24.826 74.1669 32.082 74.1669 41.001C74.1669 49.92 66.9099 57.175 57.9919 57.175Z" fill="#CF8772"/>
<path d="M36.7562 25.946H40.8812C42.3162 24.296 43.9812 22.853 45.8272 21.667H36.7562C35.5742 21.667 34.6162 22.625 34.6162 23.807C34.6162 24.989 35.5742 25.946 36.7562 25.946Z" fill="#49264E"/>
<path d="M37.9097 30.2637H25.8197C24.6377 30.2637 23.6797 31.2217 23.6797 32.4037C23.6797 33.5857 24.6377 34.5437 25.8197 34.5437H36.1687C36.6067 33.0477 37.1917 31.6157 37.9097 30.2637Z" fill="#49264E"/>
<path d="M35.2391 41.0004C35.2391 40.2784 35.2771 39.5654 35.3421 38.8604H16.5951C15.4131 38.8604 14.4551 39.8184 14.4551 41.0004C14.4551 42.1824 15.4131 43.1404 16.5951 43.1404H35.3421C35.2761 42.4354 35.2391 41.7224 35.2391 41.0004Z" fill="#49264E"/>
<path d="M36.1693 47.457H25.6293C24.4473 47.457 23.4893 48.415 23.4893 49.597C23.4893 50.779 24.4473 51.737 25.6293 51.737H37.9103C37.1923 50.384 36.6073 48.952 36.1693 47.457Z" fill="#49264E"/>
<path d="M40.8815 56.0537H36.6615C35.4795 56.0537 34.5215 57.0117 34.5215 58.1937C34.5215 59.3757 35.4795 60.3337 36.6615 60.3337H45.8285C43.9815 59.1467 42.3165 57.7037 40.8815 56.0537Z" fill="#49264E"/>
</svg>
