<svg width="91" height="82" viewBox="0 0 91 82" fill="none" xmlns="http://www.w3.org/2000/svg">
<rect width="91" height="82" fill="white"/>
<g clip-path="url(#clip0_148_9819)">
<path d="M41.7334 21.7998H20.4C19.2217 21.7998 18.2666 22.7549 18.2666 23.9332V27.1332C18.2666 28.3114 19.2217 29.2666 20.4 29.2666H41.7334C42.9116 29.2666 43.8667 28.3114 43.8667 27.1332V23.9332C43.8666 22.7549 42.9115 21.7998 41.7334 21.7998ZM41.7334 27.1332H20.4V23.9332H41.7334V27.1332Z" fill="#CF8772"/>
<path d="M36.4001 36.7338C36.4001 33.7883 34.0123 31.4004 31.0668 31.4004C28.1213 31.4004 25.7334 33.7883 25.7334 36.7338C25.7334 39.6793 28.1211 42.0671 31.0668 42.0671C34.0109 42.0635 36.3966 39.6778 36.4001 36.7338ZM27.8668 36.7338C27.8668 34.9665 29.2994 33.5338 31.0668 33.5338C32.8341 33.5338 34.2668 34.9665 34.2668 36.7338C34.2668 38.501 32.834 39.9338 31.0668 39.9338C29.2995 39.9338 27.8668 38.501 27.8668 36.7338Z" fill="#CF8772"/>
<path d="M19.3332 33.5336H23.5999C24.189 33.5336 24.6665 33.0561 24.6665 32.467C24.6665 31.8779 24.189 31.4004 23.5999 31.4004H19.3332C18.7441 31.4004 18.2666 31.8779 18.2666 32.467C18.2666 33.0561 18.7441 33.5336 19.3332 33.5336Z" fill="#CF8772"/>
<path d="M19.3332 42.0668H23.5999C24.189 42.0668 24.6665 41.5893 24.6665 41.0002C24.6665 40.4111 24.189 39.9336 23.5999 39.9336H19.3332C18.7441 39.9336 18.2666 40.4111 18.2666 41.0002C18.2666 41.5893 18.7441 42.0668 19.3332 42.0668Z" fill="#CF8772"/>
<path d="M19.3332 37.8002H22.5332C23.1224 37.8002 23.5999 37.3227 23.5999 36.7336C23.5999 36.1445 23.1224 35.667 22.5332 35.667H19.3332C18.7441 35.667 18.2666 36.1445 18.2666 36.7336C18.2666 37.3227 18.7441 37.8002 19.3332 37.8002Z" fill="#CF8772"/>
<path d="M42.8 31.4004H38.5334C37.9443 31.4004 37.4668 31.8779 37.4668 32.467C37.4668 33.0561 37.9443 33.5336 38.5334 33.5336H42.8C43.3892 33.5336 43.8667 33.0561 43.8667 32.467C43.8667 31.8779 43.3892 31.4004 42.8 31.4004Z" fill="#CF8772"/>
<path d="M42.8 39.9336H38.5334C37.9443 39.9336 37.4668 40.4111 37.4668 41.0002C37.4668 41.5893 37.9443 42.0668 38.5334 42.0668H42.8C43.3892 42.0668 43.8667 41.5893 43.8667 41.0002C43.8667 40.4111 43.3892 39.9336 42.8 39.9336Z" fill="#CF8772"/>
<path d="M42.7998 35.667H39.5998C39.0107 35.667 38.5332 36.1445 38.5332 36.7336C38.5332 37.3227 39.0107 37.8002 39.5998 37.8002H42.7998C43.389 37.8002 43.8665 37.3227 43.8665 36.7336C43.8665 36.1445 43.389 35.667 42.7998 35.667Z" fill="#CF8772"/>
<path d="M42.7999 44.2002H19.3332C18.7441 44.2002 18.2666 44.6777 18.2666 45.2668C18.2666 45.8559 18.7441 46.3334 19.3332 46.3334H42.7999C43.389 46.3334 43.8665 45.8559 43.8665 45.2668C43.8665 44.6777 43.389 44.2002 42.7999 44.2002Z" fill="#CF8772"/>
<path d="M42.7999 48.4668H19.3332C18.7441 48.4668 18.2666 48.9443 18.2666 49.5334C18.2666 50.1225 18.7441 50.6 19.3332 50.6H42.7999C43.389 50.6 43.8665 50.1225 43.8665 49.5334C43.8665 48.9443 43.389 48.4668 42.7999 48.4668Z" fill="#CF8772"/>
<path d="M28.8478 53.3811C28.8237 53.3135 28.7914 53.249 28.7518 53.1891L28.6238 53.0302C28.1964 52.6345 27.5364 52.6345 27.1092 53.0302C27.0631 53.0803 27.0203 53.1335 26.9812 53.1891C26.9412 53.2488 26.9089 53.3133 26.8852 53.3811C26.8544 53.4416 26.8328 53.5062 26.8212 53.5731C26.8093 53.6436 26.8022 53.715 26.7998 53.7865C26.8037 54.069 26.9142 54.3395 27.1092 54.5438C27.3127 54.7402 27.5838 54.851 27.8666 54.8532C28.0061 54.8512 28.1437 54.8218 28.2719 54.7668C28.4008 54.7125 28.5197 54.6371 28.6239 54.5438C28.8186 54.3392 28.9291 54.0688 28.9333 53.7865C28.9311 53.7148 28.9237 53.6436 28.9109 53.5731C28.9001 53.5062 28.8788 53.4415 28.8478 53.3811Z" fill="#CF8772"/>
<path d="M28.8478 57.6616C28.8241 57.5939 28.7918 57.5294 28.7518 57.4696L28.6238 57.3096C28.1961 56.915 27.5369 56.915 27.1092 57.3096C27.0633 57.3603 27.0206 57.4138 26.9812 57.4696C26.9408 57.5291 26.9086 57.5936 26.8852 57.6616C26.8544 57.7221 26.8328 57.7868 26.8212 57.8536C26.8093 57.9241 26.8022 57.9955 26.7998 58.067C26.8034 58.3495 26.9139 58.6201 27.1092 58.8244C27.3123 59.0213 27.5837 59.132 27.8666 59.1338C28.0059 59.1321 28.1437 59.1031 28.2719 59.0484C28.4011 58.994 28.5201 58.9183 28.6239 58.8244C28.8187 58.6199 28.9292 58.3494 28.9333 58.067C28.9311 57.9954 28.9236 57.9241 28.9109 57.8536C28.9001 57.7866 28.8788 57.7219 28.8478 57.6616Z" fill="#CF8772"/>
<path d="M35.2482 53.3811C35.2239 53.3135 35.1918 53.249 35.1522 53.1891L35.0242 53.0302C34.5968 52.6345 33.9368 52.6345 33.5096 53.0302C33.4634 53.0803 33.4207 53.1335 33.3816 53.1891C33.3416 53.2488 33.3093 53.3133 33.2856 53.3811C33.2548 53.4416 33.2332 53.5062 33.2216 53.5731C33.2097 53.6436 33.2026 53.715 33.2002 53.7865C33.2041 54.069 33.3146 54.3395 33.5096 54.5438C33.7131 54.7402 33.9842 54.851 34.2669 54.8532C34.4064 54.8512 34.5441 54.8218 34.6723 54.7668C34.8012 54.7125 34.9201 54.6371 35.0243 54.5438C35.2189 54.3392 35.3294 54.0688 35.3337 53.7865C35.3314 53.7148 35.3241 53.6436 35.3113 53.5731C35.3004 53.5062 35.2792 53.4415 35.2482 53.3811Z" fill="#CF8772"/>
<path d="M35.2482 57.6616C35.2244 57.5939 35.1922 57.5294 35.1522 57.4696L35.0242 57.3096C34.5964 56.915 33.9373 56.915 33.5096 57.3096C33.4637 57.3603 33.4209 57.4138 33.3816 57.4696C33.3412 57.5291 33.3089 57.5936 33.2856 57.6616C33.2548 57.7221 33.2332 57.7868 33.2216 57.8536C33.2097 57.9241 33.2026 57.9955 33.2002 58.067C33.2038 58.3495 33.3143 58.6201 33.5096 58.8244C33.7127 59.0213 33.9841 59.132 34.2669 59.1338C34.4063 59.1321 34.5441 59.1031 34.6723 59.0484C34.8014 58.994 34.9204 58.9183 35.0243 58.8244C35.2191 58.6199 35.3296 58.3494 35.3337 58.067C35.3314 57.9954 35.3239 57.9241 35.3113 57.8536C35.3004 57.7866 35.2792 57.7219 35.2482 57.6616Z" fill="#CF8772"/>
<path d="M32.048 55.5279C32.0243 55.4601 31.992 55.3956 31.952 55.3359L31.824 55.1759C31.3962 54.7812 30.7371 54.7812 30.3094 55.1759C30.2635 55.2265 30.2208 55.28 30.1814 55.3359C30.141 55.3954 30.1087 55.4599 30.0854 55.5279C30.0545 55.5884 30.033 55.653 30.0214 55.7199C30.0095 55.7904 30.0024 55.8617 30 55.9332C30.0036 56.2157 30.1141 56.4864 30.3094 56.6906C30.5125 56.8875 30.7839 56.9982 31.0667 57C31.2061 56.9984 31.3439 56.9694 31.4721 56.9146C31.6012 56.8602 31.7203 56.7845 31.8241 56.6906C32.0189 56.4861 32.1294 56.2156 32.1335 55.9332C32.1312 55.8616 32.1239 55.7904 32.1111 55.7199C32.1003 55.653 32.079 55.5881 32.048 55.5279Z" fill="#CF8772"/>
<path d="M28.8478 61.9143C28.8237 61.8467 28.7914 61.7822 28.7518 61.7223L28.6238 61.5634C28.1964 61.1677 27.5364 61.1677 27.1092 61.5634C27.0631 61.6135 27.0203 61.6667 26.9812 61.7223C26.9412 61.782 26.9089 61.8465 26.8852 61.9143C26.8544 61.9748 26.8328 62.0394 26.8212 62.1063C26.8093 62.1768 26.8022 62.2482 26.7998 62.3197C26.8037 62.6022 26.9142 62.8727 27.1092 63.077C27.3127 63.2734 27.5838 63.3842 27.8666 63.3864C28.0061 63.3844 28.1437 63.355 28.2719 63.3C28.4008 63.2457 28.5197 63.1703 28.6239 63.0772C28.8186 62.8725 28.9291 62.6022 28.9333 62.3198C28.9311 62.2482 28.9237 62.1769 28.9109 62.1064C28.9001 62.0394 28.8788 61.9745 28.8478 61.9143Z" fill="#CF8772"/>
<path d="M35.2482 61.9143C35.2239 61.8467 35.1918 61.7822 35.1522 61.7223L35.0242 61.5634C34.5968 61.1677 33.9368 61.1677 33.5096 61.5634C33.4634 61.6135 33.4207 61.6667 33.3816 61.7223C33.3416 61.782 33.3093 61.8465 33.2856 61.9143C33.2548 61.9748 33.2332 62.0394 33.2216 62.1063C33.2097 62.1768 33.2026 62.2482 33.2002 62.3197C33.2041 62.6022 33.3146 62.8727 33.5096 63.077C33.7131 63.2734 33.9842 63.3842 34.2669 63.3864C34.4064 63.3844 34.5441 63.355 34.6723 63.3C34.8012 63.2457 34.9201 63.1703 35.0243 63.0772C35.2189 62.8725 35.3294 62.6022 35.3337 62.3198C35.3314 62.2482 35.3241 62.1769 35.3113 62.1064C35.3004 62.0394 35.2792 61.9745 35.2482 61.9143Z" fill="#CF8772"/>
<path d="M28.8478 66.1949C28.8241 66.1272 28.7918 66.0627 28.7518 66.0029L28.6238 65.8429C28.1961 65.4482 27.5369 65.4482 27.1092 65.8429C27.0633 65.8936 27.0206 65.9471 26.9812 66.0029C26.9408 66.0624 26.9086 66.1269 26.8852 66.1949C26.8544 66.2554 26.8328 66.3201 26.8212 66.3869C26.8093 66.4574 26.8022 66.5288 26.7998 66.6003C26.8034 66.8828 26.9139 67.1534 27.1092 67.3577C27.3123 67.5546 27.5837 67.6653 27.8666 67.6671C28.0059 67.6654 28.1437 67.6364 28.2719 67.5817C28.4011 67.5273 28.5201 67.4516 28.6239 67.3577C28.8187 67.1532 28.9292 66.8827 28.9333 66.6003C28.9311 66.5287 28.9236 66.4574 28.9109 66.3869C28.9001 66.3201 28.8788 66.2552 28.8478 66.1949Z" fill="#CF8772"/>
<path d="M35.2482 66.1949C35.2244 66.1272 35.1922 66.0627 35.1522 66.0029L35.0242 65.8429C34.5964 65.4482 33.9373 65.4482 33.5096 65.8429C33.4637 65.8936 33.4209 65.9471 33.3816 66.0029C33.3412 66.0624 33.3089 66.1269 33.2856 66.1949C33.2548 66.2554 33.2332 66.3201 33.2216 66.3869C33.2097 66.4574 33.2026 66.5288 33.2002 66.6003C33.2038 66.8828 33.3143 67.1534 33.5096 67.3577C33.7127 67.5546 33.9841 67.6653 34.2669 67.6671C34.4063 67.6654 34.5441 67.6364 34.6723 67.5817C34.8014 67.5273 34.9204 67.4516 35.0243 67.3577C35.2191 67.1532 35.3296 66.8827 35.3337 66.6003C35.3314 66.5287 35.3239 66.4574 35.3113 66.3869C35.3004 66.3201 35.2792 66.2552 35.2482 66.1949Z" fill="#CF8772"/>
<path d="M32.048 59.7805C32.0238 59.7129 31.9916 59.6484 31.952 59.5885L31.824 59.4296C31.3966 59.0339 30.7368 59.0339 30.3094 59.4296C30.2633 59.4797 30.2205 59.5329 30.1814 59.5885C30.1414 59.6482 30.1091 59.7128 30.0854 59.7805C30.0545 59.841 30.033 59.9056 30.0214 59.9725C30.0095 60.043 30.0024 60.1144 30 60.1859C30.0039 60.4684 30.1144 60.7389 30.3094 60.9433C30.5129 61.1396 30.784 61.2504 31.0667 61.2526C31.2062 61.2506 31.3439 61.2213 31.4721 61.1663C31.601 61.1119 31.7199 61.0365 31.8241 60.9434C32.0188 60.7388 32.1292 60.4684 32.1335 60.186C32.1312 60.1144 32.1239 60.0431 32.1111 59.9726C32.1003 59.9056 32.079 59.8409 32.048 59.7805Z" fill="#CF8772"/>
<path d="M32.048 64.0541C32.024 63.9867 31.9917 63.9226 31.952 63.8632L31.824 63.7032C31.3962 63.3086 30.7371 63.3086 30.3094 63.7032C30.2633 63.7537 30.2205 63.8071 30.1814 63.8632C30.1413 63.9224 30.1089 63.9866 30.0854 64.0541C30.0545 64.1148 30.033 64.1799 30.0214 64.2471C30.0095 64.3176 30.0024 64.3889 30 64.4604C30.0036 64.7429 30.1141 65.0136 30.3094 65.2178C30.5129 65.4142 30.784 65.5249 31.0667 65.5272C31.2061 65.5256 31.3439 65.4966 31.4721 65.4418C31.601 65.3871 31.72 65.3113 31.8241 65.2178C32.0189 65.0133 32.1294 64.7428 32.1335 64.4604C32.1314 64.3888 32.1239 64.3176 32.1111 64.2471C32.1003 64.1798 32.079 64.1147 32.048 64.0541Z" fill="#CF8772"/>
<path d="M68.4 9H39.6C34.714 9.00662 30.6106 12.6781 30.0629 17.5334H19.3334C16.3893 17.5369 14.0035 19.9226 14 22.8666V67.6666C14.0035 70.6108 16.3893 72.9965 19.3334 73H42.8C44.9181 72.9973 46.8339 71.7412 47.6811 69.8H68.4C73.6995 69.7941 77.9941 65.4995 78 60.2V18.6C77.9941 13.3005 73.6995 9.00587 68.4 9ZM46 67.6666C46 69.4339 44.5674 70.8666 42.8 70.8666H19.3334C17.5661 70.8666 16.1334 69.434 16.1334 67.6666V22.8666C16.1334 21.0994 17.5661 19.6666 19.3334 19.6666H42.8C44.5672 19.6666 46 21.0994 46 22.8666V67.6666ZM75.8666 60.2C75.8619 64.3218 72.5218 67.662 68.4 67.6666H48.1334V22.8666C48.1299 19.9226 45.7441 17.5369 42.8 17.5332H32.2186C32.7484 13.8629 35.8916 11.1376 39.6 11.1332H68.4C72.5218 11.138 75.862 14.4781 75.8666 18.5999V60.2Z" fill="#CF8772"/>
<path d="M51.3332 19.6665H69.4666C70.0557 19.6665 70.5332 19.189 70.5332 18.5998C70.5332 18.0107 70.0557 17.5332 69.4666 17.5332H51.3332C50.7441 17.5332 50.2666 18.0107 50.2666 18.5998C50.2666 19.189 50.7441 19.6665 51.3332 19.6665Z" fill="#CF8772"/>
<path d="M51.3332 25.0004H60.9332C61.5224 25.0004 61.9999 24.5229 61.9999 23.9338C61.9999 23.3447 61.5224 22.8672 60.9332 22.8672H51.3332C50.7441 22.8672 50.2666 23.3447 50.2666 23.9338C50.2666 24.5229 50.7441 25.0004 51.3332 25.0004Z" fill="#CF8772"/>
<path d="M69.4668 22.8662H66.2668C65.6777 22.8662 65.2002 23.3437 65.2002 23.9328C65.2002 24.522 65.6777 24.9995 66.2668 24.9995H69.4668C70.0559 24.9995 70.5334 24.522 70.5334 23.9328C70.5334 23.3437 70.0559 22.8662 69.4668 22.8662Z" fill="#CF8772"/>
<path d="M51.3332 30.3334H69.4666C70.0557 30.3334 70.5332 29.8559 70.5332 29.2668C70.5332 28.6777 70.0557 28.2002 69.4666 28.2002H51.3332C50.7441 28.2002 50.2666 28.6777 50.2666 29.2668C50.2666 29.8559 50.7441 30.3334 51.3332 30.3334Z" fill="#CF8772"/>
<path d="M69.4664 33.5332H59.8664C59.2773 33.5332 58.7998 34.0107 58.7998 34.5998C58.7998 35.189 59.2773 35.6665 59.8664 35.6665H69.4664C70.0556 35.6665 70.5331 35.1888 70.5331 34.5998C70.5331 34.0108 70.0556 33.5332 69.4664 33.5332Z" fill="#CF8772"/>
<path d="M54.5332 35.6665C55.1224 35.6665 55.5998 35.1888 55.5998 34.5998C55.5998 34.0108 55.1224 33.5332 54.5332 33.5332H51.3332C50.7441 33.5332 50.2666 34.0107 50.2666 34.5998C50.2666 35.189 50.7441 35.6665 51.3332 35.6665H54.5332Z" fill="#CF8772"/>
<path d="M72.2404 45.4798C71.997 45.2956 71.6863 45.2245 71.387 45.2845C68.2106 45.7194 65.0136 44.6431 62.747 42.3758C62.3305 41.9594 61.6552 41.9594 61.2387 42.3758C58.9799 44.6558 55.7765 45.7341 52.5987 45.2845C52.3001 45.2248 51.9901 45.2955 51.747 45.4789C51.5038 45.6623 51.3507 45.9409 51.3262 46.2445C51.3145 46.3918 50.3288 60.9453 61.594 65.4509C61.6057 65.4509 61.6185 65.4509 61.6314 65.4573C61.7489 65.5045 61.8739 65.5303 62.0005 65.533C62.123 65.5308 62.2441 65.5076 62.3589 65.4648C62.3706 65.4594 62.3845 65.4648 62.3962 65.4573C73.6614 60.9516 72.6757 46.398 72.6671 46.2509C72.6426 45.9444 72.4871 45.6633 72.2404 45.4798ZM62.0004 63.2931C54.2702 59.8958 53.4735 50.6958 53.4425 47.515C56.563 47.6489 59.6191 46.6006 62.0004 44.5795C64.3826 46.5994 67.4401 47.6449 70.5604 47.5064C70.5337 50.6883 69.7519 59.8798 62.0004 63.2931Z" fill="#CF8772"/>
<path d="M66.3797 48.4403C65.9902 48.4074 65.6139 48.5903 65.399 48.9167V48.9134L60.7964 55.3551L59.5538 54.1124C59.1353 53.7082 58.4699 53.7139 58.0585 54.1254C57.647 54.5369 57.6413 55.2022 58.0455 55.6207L60.1789 57.7541C60.3789 57.9541 60.6502 58.0666 60.933 58.0666C60.9618 58.0666 60.9917 58.0666 61.0205 58.0666C61.333 58.0404 61.6182 57.8782 61.8003 57.6228L67.1337 50.1562C67.3729 49.8472 67.424 49.4319 67.2668 49.0742C67.1095 48.7163 66.7692 48.4732 66.3797 48.4403Z" fill="#CF8772"/>
</g>
<defs>
<clipPath id="clip0_148_9819">
<rect width="64" height="64" fill="white" transform="translate(14 9)"/>
</clipPath>
</defs>
</svg>
