<svg width="91" height="82" viewBox="0 0 91 82" fill="none" xmlns="http://www.w3.org/2000/svg">
<rect width="91" height="82" fill="white"/>
<path d="M46 71C36.6 71 29 63.4 29 54C29 44.6 36.6 37 46 37C55.4 37 63 44.6 63 54C63 63.4 55.4 71 46 71ZM46 39C37.7 39 31 45.7 31 54C31 62.3 37.7 69 46 69C54.3 69 61 62.3 61 54C61 45.7 54.3 39 46 39Z" fill="#49264E"/>
<path d="M71 51H62V49H71C72.7 49 74 47.7 74 46V16C74 14.3 72.7 13 71 13H21C19.3 13 18 14.3 18 16V46C18 47.7 19.3 49 21 49H30V51H21C18.2 51 16 48.8 16 46V16C16 13.2 18.2 11 21 11H71C73.8 11 76 13.2 76 16V46C76 48.8 73.8 51 71 51Z" fill="#49264E"/>
<path d="M33 29C29.1 29 26 25.9 26 22C26 18.1 29.1 15 33 15C36.9 15 40 18.1 40 22C40 25.9 36.9 29 33 29ZM33 17C30.2 17 28 19.2 28 22C28 24.8 30.2 27 33 27C35.8 27 38 24.8 38 22C38 19.2 35.8 17 33 17Z" fill="#49264E"/>
<path d="M33.0004 45.0002H20.9004L21.9004 33.2002C22.0004 32.0002 22.8004 31.0002 23.9004 30.6002L29.5004 28.7002L33.0004 35.7002L36.5004 28.7002L42.1004 30.6002C43.2004 31.0002 44.0004 32.0002 44.1004 33.2002L44.5004 37.9002L42.5004 38.1002L42.1004 33.4002C42.1004 33.0002 41.8004 32.7002 41.4004 32.5002L37.5004 31.2002L33.0004 40.2002L28.5004 31.2002L24.6004 32.5002C24.2004 32.6002 24.0004 33.0002 23.9004 33.4002L23.1004 43.0002H33.0004V45.0002Z" fill="#49264E"/>
<path d="M47 17H70V19H47V17Z" fill="#49264E"/>
<path d="M47 23H67V25H47V23Z" fill="#49264E"/>
<path d="M47 30H70V32H47V30Z" fill="#49264E"/>
<path d="M57 51V49L46 43L35 49V51H37V58H36V60H35V62H57V60H56V58H55V51H57ZM49 58H47V51H49V58ZM43 51H45V58H43V51ZM39 51H41V58H39V51ZM53 58H51V51H53V58Z" fill="#49264E"/>
</svg>
