<svg width="91" height="82" viewBox="0 0 91 82" fill="none" xmlns="http://www.w3.org/2000/svg">
<rect width="91" height="82" fill="white"/>
<g clip-path="url(#clip0_148_9929)">
<path d="M67.769 20.4846C67.769 19.4383 67.3939 18.5869 66.6509 17.9267C65.9079 17.2664 64.9629 16.9346 63.8231 16.9346H60.88C60.5085 16.9346 60.1982 17.0644 59.9422 17.3169C59.6897 17.5694 59.5635 17.8869 59.5635 18.2658V27.1697C59.5635 27.5377 59.6897 27.8516 59.9422 28.1041C60.2307 28.3566 60.541 28.4829 60.88 28.4829C61.237 28.4829 61.54 28.3638 61.7817 28.1186C62.0234 27.8768 62.146 27.5774 62.146 27.2167V23.7497L65.5832 27.9454C65.879 28.3062 66.2145 28.4829 66.5967 28.4829C66.9539 28.4829 67.2676 28.3638 67.5309 28.1186C67.7834 27.8444 67.9096 27.5377 67.9096 27.2022C67.9096 26.8956 67.7977 26.6213 67.5777 26.3761L65.0421 23.6053C65.6985 23.4791 66.1819 23.3094 66.4992 23.1002C67.3435 22.5193 67.769 21.6463 67.769 20.4846ZM64.797 21.4731C64.5301 21.7328 64.2091 21.8627 63.8412 21.8627H62.1605V19.2796H63.8087C64.2091 19.2796 64.5374 19.4058 64.7899 19.6619C65.064 19.9037 65.2011 20.1994 65.2011 20.5494C65.201 20.9067 65.0675 21.2169 64.797 21.4731Z" fill="#49264E"/>
<path d="M52.1867 16.9199H49.1785C48.8107 16.9199 48.4969 17.0498 48.2372 17.3095C47.9774 17.5657 47.8477 17.8868 47.8477 18.2655V27.1694C47.8477 27.5374 47.9739 27.8513 48.23 28.1038C48.4825 28.3563 48.7819 28.4827 49.1318 28.4827C49.4817 28.4827 49.781 28.3564 50.0335 28.1038C50.286 27.8513 50.4159 27.5482 50.4159 27.2019V24.6188H52.3455C53.5178 24.6188 54.4592 24.2688 55.166 23.5653C55.8729 22.8618 56.2264 21.9418 56.2264 20.8018C56.2264 19.6509 55.8513 18.7165 55.101 17.9985C54.3508 17.2808 53.3805 16.9199 52.1867 16.9199ZM53.1208 21.9094C52.8178 22.216 52.4572 22.3712 52.0459 22.3712H50.4157V19.218H52.0604C52.4933 19.218 52.8539 19.3732 53.146 19.6834C53.4382 19.9973 53.5824 20.3725 53.5824 20.8163C53.5825 21.2384 53.4274 21.6028 53.1208 21.9094Z" fill="#49264E"/>
<path d="M38.7485 28.3423C40.2886 28.3423 41.5257 27.9238 42.4527 27.0904C43.6899 25.9612 44.3066 24.4676 44.3066 22.6059C44.3066 21.6463 44.1191 20.7552 43.744 19.9398C43.3689 19.1208 42.8459 18.4607 42.1679 17.9664C41.2301 17.2809 40.0146 16.9346 38.525 16.9346H35.8812C35.5134 16.9346 35.1995 17.0681 34.9471 17.3314C34.6946 17.5948 34.5684 17.8978 34.5684 18.2369V27.0578C34.5684 27.4402 34.6874 27.7504 34.9326 27.9922C35.1959 28.2267 35.5169 28.3422 35.8992 28.3422L38.7485 28.3423ZM37.1326 19.2653H38.5104C39.4806 19.2653 40.2489 19.5648 40.8151 20.1672C41.3814 20.7697 41.6627 21.5814 41.6627 22.6061C41.6627 23.6414 41.3886 24.4713 40.8404 25.0954C40.2885 25.7159 39.56 26.0298 38.6546 26.0298H37.1325L37.1326 19.2653Z" fill="#49264E"/>
<path d="M26.0052 19.0739C26.5967 19.0739 27.1775 19.2398 27.7474 19.5646L28.3172 19.9146C28.7067 20.1454 29.017 20.2646 29.2514 20.2646C29.5471 20.2646 29.8104 20.1456 30.0412 19.9074C30.2757 19.6693 30.3911 19.3916 30.3911 19.0741C30.3911 18.5473 29.9727 18.0387 29.1395 17.5552C28.2017 17.0141 27.1485 16.7471 25.9871 16.7471C24.3316 16.7471 22.961 17.3098 21.879 18.4319C20.797 19.5576 20.2559 20.9718 20.2559 22.6711C20.2559 24.3594 20.7861 25.7593 21.8465 26.8704C22.9069 27.9781 24.2631 28.5336 25.9077 28.5336C27.4406 28.5336 28.6922 28.0321 29.6696 27.0256C30.6471 26.0227 31.134 24.7418 31.134 23.1761C31.134 22.6061 31.015 22.1948 30.7805 21.9351C30.5425 21.6753 30.1745 21.5454 29.6769 21.5454H26.9069C26.7374 21.5454 26.5859 21.5779 26.4487 21.6428C26.3117 21.7042 26.189 21.7907 26.0845 21.8953C25.8609 22.1154 25.7491 22.3859 25.7491 22.7034C25.7491 23.0389 25.8645 23.3239 26.0917 23.5513C26.319 23.7786 26.5895 23.8904 26.9069 23.8904H28.4902C28.3532 24.6624 28.1151 25.2037 27.7761 25.5212C27.3145 25.9758 26.7049 26.2031 25.9546 26.2031C25.0601 26.2031 24.3387 25.8712 23.7941 25.2037C23.2495 24.5398 22.979 23.6812 22.979 22.6242C22.979 21.5563 23.2567 20.6977 23.8121 20.0483C24.3642 19.3986 25.0964 19.0739 26.0052 19.0739Z" fill="#49264E"/>
<path d="M25.7533 57.3615H43.0263C44.3301 57.3615 45.3906 56.3023 45.3906 55.0005V43.7335C45.3906 42.4753 44.4022 41.4466 43.1616 41.3758V40.6993C43.1616 35.8606 39.2273 31.9238 34.3916 31.9238C29.5538 31.9238 25.618 35.8605 25.618 40.6993V41.3758C24.3793 41.4467 23.3926 42.4755 23.3926 43.7335V55.0005C23.3926 56.3023 24.4516 57.3615 25.7533 57.3615ZM42.8693 54.8402H25.9138V43.8901H42.8693V54.8402ZM34.3916 34.4451C37.8372 34.4451 40.6403 37.2507 40.6403 40.6993V41.369H28.1392V40.6993C28.1392 37.2508 30.944 34.4451 34.3916 34.4451Z" fill="#49264E"/>
<path d="M34.3915 47.4111C33.6952 47.4111 33.1309 47.9755 33.1309 48.6718V50.0608C33.1309 50.757 33.6952 51.3214 34.3915 51.3214C35.0877 51.3214 35.6521 50.757 35.6521 50.0608V48.6718C35.6521 47.9755 35.0877 47.4111 34.3915 47.4111Z" fill="#49264E"/>
<path d="M75.6601 47.5151L74.1652 46.7084V15.9101C74.1652 12.3066 71.2343 9.375 67.6315 9.375H20.5338C16.931 9.375 14 12.3066 14 15.9101V57.832C14 61.4355 16.931 64.3671 20.5338 64.3671H29.0494C29.7456 64.3671 30.31 63.8027 30.31 63.1065C30.31 62.4102 29.7456 61.8459 29.0494 61.8459H20.5338C18.3212 61.8459 16.5213 60.0453 16.5213 57.832V15.9101C16.5213 13.6967 18.3212 11.8963 20.5338 11.8963H67.6315C69.8441 11.8963 71.6441 13.6969 71.6441 15.9101V45.3479L65.406 41.9815C65.0324 41.7799 64.5823 41.7799 64.2086 41.9815L53.9546 47.5151C52.4314 48.3346 51.6355 48.8661 51.6155 51.0998C51.5844 54.5708 52.4939 58.2653 54.2481 61.846H40.4795C39.7832 61.846 39.2189 62.4104 39.2189 63.1066C39.2189 63.8029 39.7832 64.3672 40.4795 64.3672H55.6256C57.6816 67.7657 60.0756 70.294 62.7583 71.8952C63.5723 72.3817 64.1899 72.625 64.8076 72.625C65.4254 72.625 66.0429 72.3816 66.8568 71.8952C69.9305 70.0605 72.6256 67.0089 74.8667 62.826C76.95 58.943 78.0332 54.8881 77.9994 51.0996C77.9792 48.8661 77.1834 48.3345 75.6601 47.5151ZM72.6446 61.6345C70.6223 65.4094 68.24 68.1331 65.5638 69.7308C65.0061 70.0641 64.8488 70.1048 64.8078 70.1069C64.766 70.1048 64.6087 70.0641 64.051 69.7308C64.0507 69.7306 64.0505 69.7305 64.0504 69.7304C61.3746 68.1332 58.9924 65.4094 56.9696 61.6339C55.0861 58.1231 54.1064 54.4881 54.1365 51.1222C54.1426 50.4359 54.2241 50.3089 54.2334 50.2967C54.3216 50.1806 54.7422 49.9544 55.149 49.7354L64.8073 44.5233L74.4316 49.7171L74.4655 49.7352C74.8722 49.9541 75.2929 50.1804 75.3811 50.2966C75.3904 50.3089 75.4719 50.4359 75.478 51.122C75.5083 54.4883 74.5285 58.1231 72.6446 61.6345Z" fill="#49264E"/>
<path d="M48.2432 33.1845C48.2432 33.8807 48.8075 34.4451 49.5037 34.4451H63.4512C64.1473 34.4451 64.7117 33.8807 64.7117 33.1845C64.7117 32.4882 64.1473 31.9238 63.4512 31.9238H49.5037C48.8075 31.9238 48.2432 32.4883 48.2432 33.1845Z" fill="#49264E"/>
<path d="M55.2166 38.3379C54.5204 38.3379 53.9561 38.9023 53.9561 39.5985C53.9561 40.2948 54.5204 40.8591 55.2166 40.8591H60.9442C61.6403 40.8591 62.2047 40.2948 62.2047 39.5985C62.2047 38.9023 61.6403 38.3379 60.9442 38.3379H55.2166Z" fill="#49264E"/>
<path d="M49.4963 38.3379C48.8001 38.3379 48.2393 38.9023 48.2393 39.5985C48.2393 40.2948 48.8073 40.8591 49.5035 40.8591C50.1998 40.8591 50.764 40.2948 50.764 39.5985C50.764 38.9023 50.1996 38.3379 49.5035 38.3379H49.4963Z" fill="#49264E"/>
<path d="M34.7624 61.8457H34.7588C34.0625 61.8457 33.5 62.4101 33.5 63.1063C33.5 63.8026 34.0661 64.367 34.7624 64.367C35.4586 64.367 36.023 63.8026 36.023 63.1063C36.023 62.4101 35.4586 61.8457 34.7624 61.8457Z" fill="#49264E"/>
<path d="M67.9876 53.9541L63.8506 58.1995L62.3397 56.7853C61.8317 56.3096 61.0335 56.3358 60.558 56.8443C60.0822 57.3526 60.1087 58.1505 60.617 58.6262L63.0298 60.8846C63.2728 61.112 63.5821 61.2248 63.8911 61.2248C64.2193 61.2248 64.5472 61.0973 64.794 60.8441L69.7931 55.714C70.279 55.2153 70.2687 54.4171 69.7701 53.9313C69.2713 53.445 68.4733 53.4555 67.9876 53.9541Z" fill="#49264E"/>
</g>
<defs>
<clipPath id="clip0_148_9929">
<rect width="64" height="64" fill="white" transform="translate(14 9)"/>
</clipPath>
</defs>
</svg>
