<svg width="91" height="82" viewBox="0 0 91 82" fill="none" xmlns="http://www.w3.org/2000/svg">
<rect width="91" height="82" fill="white"/>
<path fill-rule="evenodd" clip-rule="evenodd" d="M61.049 52.3377C64.769 52.9107 69.419 52.5967 72.168 51.4167C73.975 50.6407 75 49.4487 75 48.0707C75 45.9157 74.25 43.9237 72.979 42.3187C72.636 41.8867 72.007 41.8127 71.574 42.1557C71.141 42.4987 71.068 43.1277 71.411 43.5607C72.407 44.8197 73 46.3807 73 48.0707C73 48.4597 72.731 48.7607 72.359 49.0367C71.784 49.4627 70.965 49.7877 70.012 50.0387C67 50.8317 62.707 50.8287 59.715 50.0237C58.914 48.8777 57.958 47.8387 56.874 46.9317C57.463 43.2697 60.843 40.4817 64.892 40.4817C66.584 40.4817 68.157 40.9677 69.461 41.8027C69.925 42.0997 70.544 41.9647 70.842 41.4997C71.14 41.0347 71.004 40.4157 70.539 40.1187C69.916 39.7187 69.243 39.3837 68.53 39.1227C69.703 38.1037 70.446 36.6017 70.446 34.9277C70.446 31.8617 67.957 29.3727 64.892 29.3727C64.118 29.3727 63.382 29.5317 62.713 29.8177C61.563 28.1627 59.885 26.8607 57.903 26.1347C59.077 25.1157 59.819 23.6137 59.819 21.9397C59.819 18.8737 57.331 16.3857 54.265 16.3857C51.2 16.3857 48.711 18.8737 48.711 21.9397C48.711 23.6137 49.453 25.1157 50.627 26.1347C49.559 26.5257 48.579 27.0837 47.723 27.7747C46.586 27.5467 45.414 27.5467 44.277 27.7747C43.421 27.0837 42.441 26.5257 41.373 26.1347C42.547 25.1157 43.289 23.6137 43.289 21.9397C43.289 18.8737 40.8 16.3857 37.735 16.3857C34.669 16.3857 32.181 18.8737 32.181 21.9397C32.181 23.6137 32.923 25.1157 34.097 26.1347C32.115 26.8617 30.436 28.1627 29.287 29.8177C28.618 29.5317 27.882 29.3727 27.108 29.3727C24.043 29.3727 21.554 31.8617 21.554 34.9277C21.554 36.6017 22.296 38.1037 23.47 39.1227C19.68 40.5117 17 44.0057 17 48.0707C17 49.4487 18.025 50.6407 19.832 51.4167C22.581 52.5967 27.231 52.9107 30.951 52.3377C30.06 54.2527 29.566 56.3677 29.566 58.5897C29.566 60.1227 30.405 61.4578 31.927 62.5228C32.379 62.8398 33.003 62.7287 33.319 62.2767C33.636 61.8247 33.526 61.2008 33.073 60.8848C32.162 60.2468 31.566 59.5067 31.566 58.5897C31.566 51.0927 38.049 45.0357 46 45.0357C53.951 45.0357 60.434 51.0927 60.434 58.5897C60.434 59.3977 59.965 60.0697 59.232 60.6557C58.318 61.3867 57.013 61.9667 55.475 62.4227C50.575 63.8727 43.385 64.0007 38.063 62.8177C37.524 62.6977 36.989 63.0387 36.869 63.5767C36.75 64.1157 37.09 64.6507 37.629 64.7697C44.22 66.2357 53.508 65.7677 58.489 63.4267C60.982 62.2557 62.434 60.5777 62.434 58.5897C62.434 56.3677 61.94 54.2527 61.049 52.3377ZM35.126 46.9317C34.537 43.2697 31.157 40.4817 27.108 40.4817C22.649 40.4817 19 43.8657 19 48.0707C19 48.4597 19.269 48.7607 19.641 49.0367C20.216 49.4627 21.035 49.7877 21.988 50.0387C25 50.8317 29.293 50.8287 32.285 50.0237C33.086 48.8787 34.042 47.8387 35.126 46.9317ZM37.938 39.6367C35.491 39.6547 33.028 39.3367 31.179 38.7047C31.042 38.8517 30.898 38.9907 30.747 39.1227C33.756 40.2267 36.066 42.6567 36.89 45.6457C38.239 44.7927 39.73 44.1227 41.322 43.6757C40.793 43.3397 40.293 42.9407 39.832 42.4787C38.994 41.6397 38.362 40.6707 37.938 39.6367ZM61.253 39.1227C61.102 38.9907 60.957 38.8517 60.821 38.7047C58.972 39.3367 56.508 39.6547 54.062 39.6377C53.636 40.6737 53.002 41.6457 52.16 42.4867C51.701 42.9447 51.204 43.3417 50.678 43.6757C52.27 44.1227 53.76 44.7917 55.11 45.6457C55.934 42.6567 58.244 40.2257 61.253 39.1227ZM61.045 30.9217C59.592 28.8527 57.094 27.4937 54.265 27.4937C52.724 27.4937 51.281 27.8967 50.052 28.5987C50.813 28.9987 51.528 29.5187 52.168 30.1597C52.558 30.5497 52.557 31.1837 52.167 31.5737C51.776 31.9637 51.143 31.9627 50.753 31.5727C48.133 28.9497 43.877 28.9467 41.254 31.5667C38.63 34.1857 38.628 38.4427 41.247 41.0657C43.867 43.6887 48.123 43.6917 50.746 41.0717C52.747 39.0737 53.223 36.1237 52.175 33.6717C51.958 33.1647 52.193 32.5757 52.701 32.3587C53.208 32.1417 53.796 32.3777 54.013 32.8847C54.657 34.3907 54.858 36.0407 54.616 37.6367C56.451 37.6127 58.265 37.3907 59.721 36.9597C59.474 36.3297 59.337 35.6447 59.337 34.9277C59.337 33.3547 59.993 31.9327 61.045 30.9217ZM64.892 31.3727C66.853 31.3727 68.446 32.9657 68.446 34.9277C68.446 36.8887 66.853 38.4817 64.892 38.4817C62.93 38.4817 61.337 36.8887 61.337 34.9277C61.337 32.9657 62.93 31.3727 64.892 31.3727ZM27.108 31.3727C29.07 31.3727 30.663 32.9657 30.663 34.9277C30.663 36.8887 29.07 38.4817 27.108 38.4817C25.147 38.4817 23.554 36.8887 23.554 34.9277C23.554 32.9657 25.147 31.3727 27.108 31.3727ZM41.948 28.5987C40.719 27.8967 39.276 27.4937 37.735 27.4937C34.906 27.4937 32.408 28.8527 30.955 30.9217C32.007 31.9327 32.663 33.3547 32.663 34.9277C32.663 35.6447 32.527 36.3297 32.279 36.9597C33.735 37.3907 35.549 37.6127 37.384 37.6367C36.982 34.9867 37.801 32.1877 39.84 30.1517C40.478 29.5147 41.19 28.9967 41.948 28.5987ZM54.265 18.3857C56.227 18.3857 57.819 19.9777 57.819 21.9397C57.819 23.9007 56.227 25.4937 54.265 25.4937C52.303 25.4937 50.711 23.9007 50.711 21.9397C50.711 19.9777 52.303 18.3857 54.265 18.3857ZM37.735 18.3857C39.697 18.3857 41.289 19.9777 41.289 21.9397C41.289 23.9007 39.697 25.4937 37.735 25.4937C35.773 25.4937 34.181 23.9007 34.181 21.9397C34.181 19.9777 35.773 18.3857 37.735 18.3857Z" fill="#CF8772"/>
<path d="M35.0889 64C35.6412 64 36.0889 63.5523 36.0889 63C36.0889 62.4477 35.6412 62 35.0889 62C34.5366 62 34.0889 62.4477 34.0889 63C34.0889 63.5523 34.5366 64 35.0889 64Z" fill="#CF8772"/>
</svg>
