<svg width="91" height="82" viewBox="0 0 91 82" fill="none" xmlns="http://www.w3.org/2000/svg">
<rect width="91" height="82" fill="white"/>
<path d="M56.2462 21.6221H27.0078C26.4899 21.6221 26.0703 22.0418 26.0703 22.5596C26.0703 23.0773 26.4899 23.4971 27.0078 23.4971H56.2461C56.7639 23.4971 57.1836 23.0773 57.1836 22.5596C57.1836 22.0418 56.7639 21.6221 56.2462 21.6221Z" fill="#49264E"/>
<path d="M69.869 54.692H67.4879V33.28C67.4879 32.0739 66.5065 31.0925 65.3004 31.0925H64.3216V11.1875C64.3216 9.98137 63.3402 9 62.1341 9H29.2204C28.5872 9 27.9795 9.26875 27.5611 9.68713L19.62 17.6296C19.1916 18.058 18.9329 18.6697 18.9329 19.2887V25.2325H17.9541C16.748 25.2325 15.7666 26.2139 15.7666 27.42V32.2975C15.7666 32.8153 16.1862 33.235 16.7041 33.235C17.222 33.235 17.6416 32.8153 17.6416 32.2975V27.42C17.6416 27.2478 17.7817 27.1075 17.9541 27.1075H33.9879C34.299 27.1075 34.5865 27.2889 34.7206 27.5704L36.7041 31.7224C37.065 32.4788 37.8397 32.9675 38.6777 32.9675H65.3004C65.4727 32.9675 65.6129 33.1078 65.6129 33.28V54.692H58.6804V51.3013C58.6804 50.0951 57.699 49.1138 56.4929 49.1138H54.7204V46.6963C54.7204 42.0121 50.9101 38.2013 46.2266 38.2013C41.5431 38.2013 37.7329 42.0121 37.7329 46.6963V49.1138H35.9591C34.753 49.1138 33.7716 50.0951 33.7716 51.3013V63.0025H17.9541C17.7817 63.0025 17.6416 62.8622 17.6416 62.69V36.6725C17.6416 36.1548 17.222 35.735 16.7041 35.735C16.1862 35.735 15.7666 36.1548 15.7666 36.6725V62.69C15.7666 63.8961 16.748 64.8775 17.9541 64.8775H33.7716V70.8125C33.7716 72.0186 34.753 73 35.9591 73H44.0392C44.5571 73 44.9767 72.5803 44.9767 72.0625C44.9767 71.5447 44.5571 71.125 44.0392 71.125H35.9591C35.7867 71.125 35.6466 70.9848 35.6466 70.8125V51.3013C35.6466 51.129 35.7867 50.9888 35.9591 50.9888H56.4929C56.6652 50.9888 56.8054 51.129 56.8054 51.3013V54.692H48.9976C45.488 54.692 42.6326 57.5474 42.6326 61.057C42.6326 64.5666 45.488 67.422 48.9976 67.422H56.8054V70.8125C56.8054 70.9848 56.6652 71.125 56.4929 71.125H48.4141C47.8962 71.125 47.4766 71.5447 47.4766 72.0625C47.4766 72.5803 47.8962 73 48.4141 73H56.4929C57.699 73 58.6804 72.0186 58.6804 70.8125V67.4221H69.869C73.3787 67.4221 76.2341 64.5668 76.2341 61.0571C76.2341 57.5475 73.3787 54.692 69.869 54.692ZM27.6999 12.2002V17.373C27.6999 17.3779 27.6991 17.3826 27.6991 17.3875C27.6991 17.3924 27.6997 17.3971 27.6999 17.402V17.4237C27.6999 17.613 27.546 17.7669 27.3567 17.7669H22.1341L27.6999 12.2002ZM38.3964 30.9146L37.3229 28.6675H56.2467C56.7646 28.6675 57.1842 28.2477 57.1842 27.73C57.1842 27.2122 56.7646 26.7925 56.2467 26.7925H36.4271L36.413 26.763C35.97 25.8333 35.0181 25.2325 33.988 25.2325H20.8079V19.6419H27.3567C28.2589 19.6419 29.0354 19.0997 29.3816 18.325H56.2467C56.7646 18.325 57.1842 17.9052 57.1842 17.3875C57.1842 16.8697 56.7646 16.45 56.2467 16.45H29.5749V10.875H62.1341C62.3065 10.875 62.4466 11.0152 62.4466 11.1875V31.0925H38.6779C38.5584 31.0925 38.448 31.0229 38.3964 30.9146ZM39.6079 46.6963C39.6079 43.046 42.577 40.0763 46.2266 40.0763C49.8762 40.0763 52.8454 43.046 52.8454 46.6963V49.1138H50.9704V46.6963C50.9704 44.0799 48.8424 41.9512 46.2266 41.9512C43.6109 41.9512 41.4829 44.0799 41.4829 46.6963V49.1138H39.6079V46.6963ZM49.0955 49.1138H43.358V46.6963C43.358 45.1138 44.6449 43.8262 46.2267 43.8262C47.8086 43.8262 49.0955 45.1138 49.0955 46.6963V49.1138ZM69.869 65.5471H48.9977C46.5219 65.5471 44.5077 63.5329 44.5077 61.0571C44.5077 58.5814 46.5219 56.5671 48.9977 56.5671H69.8691C72.345 56.5671 74.3592 58.5814 74.3592 61.0571C74.3592 63.5329 72.3449 65.5471 69.869 65.5471Z" fill="#49264E"/>
<path d="M52.2103 59.6164L51.7476 59.7668V59.2803C51.7476 58.7625 51.328 58.3428 50.8101 58.3428C50.2923 58.3428 49.8726 58.7625 49.8726 59.2803V59.7668L49.41 59.6164C48.9183 59.4563 48.3886 59.7259 48.2288 60.2183C48.0688 60.7106 48.3383 61.2396 48.8306 61.3996L49.2933 61.5499L49.0073 61.9435C48.7029 62.3624 48.7958 62.9488 49.2146 63.253C49.381 63.3739 49.5738 63.4321 49.7649 63.4321C50.0546 63.4321 50.3406 63.2981 50.524 63.0456L50.81 62.652L51.0959 63.0455C51.2793 63.298 51.5651 63.432 51.855 63.432C52.046 63.432 52.2389 63.3738 52.4053 63.2529C52.8243 62.9485 52.917 62.3623 52.6126 61.9434L52.3266 61.5498L52.7894 61.3994C53.2818 61.2394 53.5514 60.7105 53.3913 60.218C53.2316 59.7258 52.7021 59.4563 52.2103 59.6164Z" fill="#49264E"/>
<path d="M60.8333 59.6164L60.3707 59.7668V59.2803C60.3707 58.7625 59.9511 58.3428 59.4332 58.3428C58.9153 58.3428 58.4957 58.7625 58.4957 59.2803V59.7668L58.0331 59.6164C57.5414 59.4563 57.0118 59.7259 56.8518 60.2183C56.6918 60.7106 56.9613 61.2396 57.4537 61.3996L57.9164 61.55L57.6304 61.9436C57.3261 62.3625 57.4189 62.9489 57.8378 63.2531C58.0042 63.374 58.1969 63.4323 58.3881 63.4323C58.6778 63.4323 58.9638 63.2981 59.1472 63.0458L59.4331 62.6523L59.7191 63.0459C59.9026 63.2984 60.1883 63.4324 60.4782 63.4324C60.6692 63.4324 60.8621 63.3741 61.0284 63.2533C61.4474 62.9489 61.5402 62.3626 61.2358 61.9438L60.9498 61.5501L61.4124 61.3999C61.9048 61.2399 62.1744 60.711 62.0143 60.2185C61.8547 59.7258 61.3254 59.4563 60.8333 59.6164Z" fill="#49264E"/>
<path d="M69.4565 59.6164L68.9938 59.7668V59.2803C68.9938 58.7625 68.5742 58.3428 68.0563 58.3428C67.5385 58.3428 67.1188 58.7625 67.1188 59.2803V59.7668L66.6561 59.6164C66.1642 59.4563 65.6347 59.7258 65.4748 60.2183C65.3148 60.7106 65.5843 61.2395 66.0767 61.3995L66.5395 61.5499L66.2535 61.9434C65.9491 62.3623 66.042 62.9486 66.4608 63.2529C66.6272 63.3738 66.82 63.432 67.0111 63.432C67.3008 63.432 67.5868 63.298 67.7702 63.0455L68.0562 62.6519L68.3421 63.0454C68.5255 63.2979 68.8114 63.4319 69.1012 63.4319C69.2922 63.4319 69.4851 63.3736 69.6515 63.2528C70.0705 62.9484 70.1632 62.3621 69.8589 61.9433L69.5728 61.5496L70.0356 61.3993C70.528 61.2393 70.7976 60.7104 70.6375 60.2179C70.4778 59.7258 69.9486 59.4563 69.4565 59.6164Z" fill="#49264E"/>
</svg>
