<svg width="250" height="250" viewBox="0 0 250 250" fill="none" xmlns="http://www.w3.org/2000/svg">
<path d="M242.188 156.248C237.875 156.248 234.375 159.748 234.375 164.061V218.748H15.625V124.998H101.562C105.875 124.998 109.375 121.498 109.375 117.186C109.375 112.873 105.875 109.373 101.562 109.373H15.625V78.123H101.562C105.875 78.123 109.375 74.623 109.375 70.3105C109.375 65.998 105.875 62.498 101.562 62.498H15.625C7 62.498 0 69.498 0 78.123V218.748C0 227.373 7 234.373 15.625 234.373H234.375C243 234.373 250 227.373 250 218.748V164.061C250 159.748 246.5 156.248 242.188 156.248Z" fill="black"/>
<path d="M70.3125 156.248H39.0625C34.75 156.248 31.25 159.748 31.25 164.061C31.25 168.373 34.75 171.873 39.0625 171.873H70.3125C74.625 171.873 78.125 168.373 78.125 164.061C78.125 159.748 74.625 156.248 70.3125 156.248Z" fill="black"/>
<path d="M245.266 39.6855L190.578 16.248C188.594 15.4199 186.391 15.4199 184.406 16.248L129.719 39.6855C126.859 40.9199 125 43.748 125 46.873V78.123C125 121.107 140.891 146.232 183.609 170.842C184.813 171.529 186.156 171.873 187.5 171.873C188.844 171.873 190.187 171.529 191.391 170.842C234.109 146.295 250 121.17 250 78.123V46.873C250 43.748 248.141 40.9199 245.266 39.6855ZM234.375 78.123C234.375 114.201 222.438 134.061 187.5 154.998C152.562 134.014 140.625 114.154 140.625 78.123V52.0293L187.5 31.9355L234.375 52.0293V78.123Z" fill="black"/>
<path d="M215.829 64.2011C212.469 61.5448 207.563 62.0604 204.844 65.4198L180.282 96.1386L170.563 81.6073C168.141 78.0136 163.282 77.0604 159.735 79.4354C156.157 81.8261 155.172 86.6854 157.563 90.2636L173.188 113.701C174.579 115.779 176.86 117.06 179.36 117.185C179.469 117.185 179.594 117.185 179.688 117.185C182.047 117.185 184.297 116.123 185.797 114.248L217.047 75.1854C219.735 71.8104 219.204 66.9042 215.829 64.2011Z" fill="black"/>
</svg>
