<svg width="250" height="244" viewBox="0 0 250 244" fill="none" xmlns="http://www.w3.org/2000/svg">
<path d="M126.345 233.039H123.655C121.139 233.039 118.668 232.603 116.31 231.742C90.3848 222.275 69.553 206.933 54.3931 186.142C42.4883 169.814 34.2314 150.296 29.852 128.13C22.6285 91.5684 28.4778 59.8756 28.7304 58.5444C30.0237 51.7285 34.7082 46.0639 41.2614 43.3918L116.92 12.5422C119.493 11.4929 122.212 10.9609 125 10.9609C127.789 10.9609 130.508 11.4929 133.081 12.5421L208.739 43.3917C215.293 46.0641 219.977 51.7285 221.27 58.5442C221.523 59.8758 227.371 91.5721 220.148 128.13C215.769 150.296 207.512 169.814 195.607 186.142C180.448 206.933 159.616 222.275 133.69 231.742C131.333 232.603 128.862 233.039 126.345 233.039ZM125 18.5859C123.251 18.5859 121.545 18.9197 119.931 19.5778L44.273 50.4275C40.1621 52.1037 37.2235 55.657 36.4123 59.9326C36.1707 61.2059 30.576 91.5235 37.5231 126.686C41.6892 147.773 49.5068 166.289 60.7583 181.721C74.9977 201.25 94.609 215.677 119.048 224.6C120.526 225.14 122.077 225.414 123.655 225.414H126.345C127.924 225.414 129.474 225.14 130.953 224.6C155.391 215.677 175.003 201.25 189.242 181.721C200.494 166.289 208.311 147.773 212.477 126.686C219.424 91.527 213.83 61.2058 213.588 59.9323C212.777 55.657 209.838 52.1037 205.727 50.4273L130.069 19.5777C128.455 18.9197 126.75 18.5859 125 18.5859Z" fill="white"/>
<path d="M126.345 216.392H123.655C123.188 216.392 122.724 216.311 122.286 216.151C99.6067 207.87 81.4396 194.526 68.2891 176.49C57.8103 162.118 50.5126 144.787 46.5989 124.978C43.1388 107.465 43.0187 91.1996 43.5271 80.6384C44.0797 69.1625 45.4429 61.8797 45.5006 61.5754C45.7407 60.3098 46.6189 59.2479 47.8357 58.7518L123.494 27.9021C124.457 27.5092 125.542 27.5092 126.506 27.9021L202.164 58.7518C203.381 59.248 204.259 60.3098 204.499 61.5754C204.557 61.8798 205.92 69.1627 206.472 80.6384C206.981 91.1996 206.861 107.465 203.401 124.978C199.487 144.787 192.189 162.118 181.71 176.49C168.56 194.526 150.393 207.87 127.713 216.151C127.276 216.311 126.812 216.392 126.345 216.392ZM124.367 208.767H125.633C163.77 194.615 187.351 165.943 195.73 123.534C201.102 96.3405 198.193 71.9647 197.144 64.9686L125 35.5518L52.8547 64.9689C52.4232 67.8327 51.6779 73.602 51.3202 81.2271C50.844 91.378 50.9769 106.997 54.3145 123.758C62.7346 166.045 86.2998 194.642 124.367 208.767Z" fill="white"/>
<path d="M143.827 169.194H106.174C96.0617 169.194 87.835 161.165 87.835 151.295V121.431C87.835 111.561 96.0617 103.531 106.174 103.531H143.827C153.939 103.531 162.166 111.561 162.166 121.431V151.295C162.166 161.165 153.939 169.194 143.827 169.194ZM106.174 111.156C100.37 111.156 95.6475 115.765 95.6475 121.431V151.295C95.6475 156.96 100.37 161.569 106.174 161.569H143.827C149.631 161.569 154.353 156.96 154.353 151.295V121.431C154.353 115.765 149.631 111.156 143.827 111.156H106.174ZM125 140.919C119.033 140.919 114.178 136.18 114.178 130.356C114.178 124.531 119.033 119.792 125 119.792C130.968 119.792 135.823 124.531 135.823 130.356C135.823 136.18 130.968 140.919 125 140.919ZM125 127.417C123.341 127.417 121.99 128.735 121.99 130.356C121.99 131.976 123.341 133.294 125 133.294C126.66 133.294 128.011 131.976 128.011 130.356C128.011 128.735 126.66 127.417 125 127.417Z" fill="white"/>
<path d="M149.326 111.157C147.169 111.157 145.42 109.45 145.42 107.344V95.6665C145.42 84.6775 136.26 75.7373 125 75.7373C113.741 75.7373 104.581 84.6776 104.581 95.6665V107.344C104.581 109.45 102.832 111.157 100.675 111.157C98.5175 111.157 96.7686 109.45 96.7686 107.344V95.6665C96.7686 88.3065 99.7052 81.3871 105.037 76.1828C110.37 70.9785 117.459 68.1123 125 68.1123C132.541 68.1123 139.631 70.9785 144.963 76.1828C150.296 81.3871 153.232 88.3065 153.232 95.6665V107.344C153.232 109.45 151.483 111.157 149.326 111.157Z" fill="white"/>
<path d="M125 152.297C122.843 152.297 121.094 150.59 121.094 148.485V137.105C121.094 135 122.843 133.293 125 133.293C127.157 133.293 128.906 135 128.906 137.105V148.485C128.906 150.59 127.157 152.297 125 152.297Z" fill="white"/>
</svg>
