<svg width="20" height="20" viewBox="0 0 20 20" fill="none" xmlns="http://www.w3.org/2000/svg">
<circle cx="10" cy="10" r="10" fill="#CF8772"/>
<path d="M4.31228 10.3047V11H1.12592C1.04197 10.4087 1.26462 9.87218 1.79385 9.3904L3.16804 8.27353C3.30308 8.14943 3.40893 8.01986 3.48558 7.88482H1.29017V7.18951H4.29038C4.37433 7.78079 4.15168 8.31733 3.62245 8.79911L2.24826 9.91598C2.11322 10.0401 2.00737 10.1696 1.93072 10.3047H4.31228ZM5.87847 8.28448C6.11571 8.28448 6.33471 8.3447 6.53545 8.46515C6.73984 8.58195 6.90044 8.74254 7.01724 8.94693C7.13403 9.14768 7.19243 9.36667 7.19243 9.60392V11H6.49713V9.60392C6.49713 9.43237 6.43508 9.28637 6.31098 9.16593C6.19053 9.04183 6.04454 8.97978 5.87299 8.97978C5.7051 8.97978 5.5591 9.04183 5.43501 9.16593C5.31456 9.28637 5.25434 9.43237 5.25434 9.60392V9.74626C5.25434 9.91781 5.31456 10.0638 5.43501 10.1842C5.5591 10.3047 5.70692 10.3649 5.87847 10.3649C5.96972 10.3649 6.05914 10.343 6.14674 10.2992V11.0328C6.05914 11.0547 5.96972 11.0657 5.87847 11.0657C5.51348 11.0657 5.20141 10.9361 4.94227 10.677C4.68678 10.4178 4.55903 10.1076 4.55903 9.74626V9.60392C4.55903 9.24258 4.68678 8.93233 4.94227 8.67319C5.20141 8.41405 5.51348 8.28448 5.87847 8.28448ZM8.94344 8.28448C9.18068 8.28448 9.39968 8.3447 9.60042 8.46515C9.80481 8.58195 9.96541 8.74254 10.0822 8.94693C10.199 9.14768 10.2574 9.36667 10.2574 9.60392V9.74626C10.2574 10.1076 10.1278 10.4178 9.86869 10.677C9.61319 10.9361 9.30478 11.0657 8.94344 11.0657C8.72079 11.0657 8.51275 11.0128 8.31931 10.9069V12.3304H7.624V9.60392C7.624 9.24258 7.75175 8.93233 8.00724 8.67319C8.26638 8.41405 8.57845 8.28448 8.94344 8.28448ZM9.5621 9.74626V9.60392C9.5621 9.43237 9.50005 9.28637 9.37595 9.16593C9.2555 9.04183 9.11133 8.97978 8.94344 8.97978C8.85584 8.97978 8.77372 8.99621 8.69707 9.02906C8.62042 9.06191 8.55472 9.10753 8.49998 9.16593C8.44523 9.22068 8.40143 9.28637 8.36858 9.36302C8.33573 9.43967 8.31931 9.51997 8.31931 9.60392V9.74626C8.31931 9.91781 8.37953 10.0638 8.49998 10.1842C8.62407 10.3047 8.77007 10.3649 8.93796 10.3649C9.10951 10.3649 9.2555 10.3047 9.37595 10.1842C9.50005 10.0638 9.5621 9.91781 9.5621 9.74626ZM10.9518 8.67319C11.2109 8.41405 11.5211 8.28448 11.8825 8.28448C12.2475 8.28448 12.5577 8.41405 12.8132 8.67319C13.0724 8.93233 13.2019 9.24258 13.2019 9.60392V9.74626C13.2019 10.1076 13.0724 10.4178 12.8132 10.677C12.5577 10.9361 12.2475 11.0657 11.8825 11.0657C11.5211 11.0657 11.2109 10.9361 10.9518 10.677C10.6963 10.4178 10.5685 10.1076 10.5685 9.74626V9.60392C10.5685 9.24258 10.6963 8.93233 10.9518 8.67319ZM12.5066 9.74626V9.60392C12.5066 9.43237 12.4446 9.28637 12.3205 9.16593C12.2 9.04183 12.054 8.97978 11.8825 8.97978C11.7146 8.97978 11.5686 9.04183 11.4445 9.16593C11.3241 9.28637 11.2638 9.43237 11.2638 9.60392V9.74626C11.2638 9.91781 11.3241 10.0638 11.4445 10.1842C11.5686 10.3047 11.7146 10.3649 11.8825 10.3649C12.054 10.3649 12.2 10.3047 12.3205 10.1842C12.4446 10.0638 12.5066 9.91781 12.5066 9.74626ZM15.5073 8.35018H16.2026V9.74626C16.2026 10.1113 16.073 10.4233 15.8139 10.6825C15.5584 10.938 15.2482 11.0657 14.8832 11.0657C14.5218 11.0657 14.2116 10.938 13.9524 10.6825C13.697 10.4233 13.5692 10.1113 13.5692 9.74626V8.35018H14.2645V9.74626C14.2645 9.91781 14.3247 10.0656 14.4452 10.1897C14.5693 10.3102 14.7153 10.3704 14.8832 10.3704C15.0547 10.3704 15.2007 10.3102 15.3212 10.1897C15.4453 10.0656 15.5073 9.91781 15.5073 9.74626V8.35018ZM17.936 10.3047H18.2372V11H17.936C17.571 11 17.259 10.8723 16.9998 10.6168C16.7443 10.3576 16.6166 10.0456 16.6166 9.68056V7.35376H17.3119V8.35018H18.1058V9.05096H17.3119V9.68056C17.3119 9.85211 17.3721 9.99993 17.4926 10.124C17.6167 10.2445 17.7645 10.3047 17.936 10.3047Z" fill="#49264E"/>
</svg>
