<svg width="202" height="64" viewBox="0 0 202 64" fill="none" xmlns="http://www.w3.org/2000/svg">
<g clip-path="url(#clip0_102_3171)">
<path d="M35.8027 37.4844V45H1.3611C0.453699 38.6088 2.86027 32.8093 8.58082 27.6016L23.4345 15.5293C24.8942 14.1879 26.0384 12.7874 26.8668 11.3277H3.13644V3.81206H35.566C36.4734 10.2033 34.0668 16.0027 28.3463 21.2104L13.4926 33.2827C12.0329 34.6241 10.8888 36.0247 10.0603 37.4844H35.8027ZM52.7318 15.6477C55.2962 15.6477 57.6633 16.2986 59.8332 17.6005C62.0425 18.863 63.7784 20.5989 65.0409 22.8082C66.3033 24.9781 66.9346 27.3452 66.9346 29.9096V45H59.419V29.9096C59.419 28.0553 58.7483 26.4773 57.4069 25.1753C56.105 23.834 54.5269 23.1633 52.6726 23.1633C50.8579 23.1633 49.2798 23.834 47.9384 25.1753C46.6365 26.4773 45.9855 28.0553 45.9855 29.9096V31.4482C45.9855 33.3025 46.6365 34.8805 47.9384 36.1825C49.2798 37.4844 50.8776 38.1353 52.7318 38.1353C53.7181 38.1353 54.6847 37.8986 55.6316 37.4252V45.3551C54.6847 45.5918 53.7181 45.7101 52.7318 45.7101C48.7866 45.7101 45.4135 44.3096 42.6124 41.5085C39.8507 38.7074 38.4699 35.354 38.4699 31.4482V29.9096C38.4699 26.0038 39.8507 22.6504 42.6124 19.8493C45.4135 17.0482 48.7866 15.6477 52.7318 15.6477ZM85.8614 15.6477C88.4258 15.6477 90.7929 16.2986 92.9628 17.6005C95.1721 18.863 96.908 20.5989 98.1704 22.8082C99.4329 24.9781 100.064 27.3452 100.064 29.9096V31.4482C100.064 35.354 98.6636 38.7074 95.8625 41.5085C93.1008 44.3096 89.7671 45.7101 85.8614 45.7101C83.4548 45.7101 81.206 45.1381 79.1151 43.994V59.3803H71.5995V29.9096C71.5995 26.0038 72.9803 22.6504 75.7419 19.8493C78.543 17.0482 81.9162 15.6477 85.8614 15.6477ZM92.5485 31.4482V29.9096C92.5485 28.0553 91.8778 26.4773 90.5365 25.1753C89.2345 23.834 87.6762 23.1633 85.8614 23.1633C84.9145 23.1633 84.0269 23.3408 83.1984 23.6959C82.3699 24.051 81.6597 24.5441 81.068 25.1753C80.4762 25.7671 80.0028 26.4773 79.6477 27.3058C79.2926 28.1342 79.1151 29.0022 79.1151 29.9096V31.4482C79.1151 33.3025 79.766 34.8805 81.068 36.1825C82.4093 37.4844 83.9874 38.1353 85.8022 38.1353C87.6564 38.1353 89.2345 37.4844 90.5365 36.1825C91.8778 34.8805 92.5485 33.3025 92.5485 31.4482ZM107.57 19.8493C110.371 17.0482 113.724 15.6477 117.63 15.6477C121.575 15.6477 124.928 17.0482 127.69 19.8493C130.491 22.6504 131.892 26.0038 131.892 29.9096V31.4482C131.892 35.354 130.491 38.7074 127.69 41.5085C124.928 44.3096 121.575 45.7101 117.63 45.7101C113.724 45.7101 110.371 44.3096 107.57 41.5085C104.808 38.7074 103.427 35.354 103.427 31.4482V29.9096C103.427 26.0038 104.808 22.6504 107.57 19.8493ZM124.376 31.4482V29.9096C124.376 28.0553 123.705 26.4773 122.364 25.1753C121.062 23.834 119.484 23.1633 117.63 23.1633C115.815 23.1633 114.237 23.834 112.896 25.1753C111.594 26.4773 110.943 28.0553 110.943 29.9096V31.4482C110.943 33.3025 111.594 34.8805 112.896 36.1825C114.237 37.4844 115.815 38.1353 117.63 38.1353C119.484 38.1353 121.062 37.4844 122.364 36.1825C123.705 34.8805 124.376 33.3025 124.376 31.4482ZM156.811 16.3578H164.326V31.4482C164.326 35.3934 162.926 38.7666 160.125 41.5677C157.363 44.3293 154.01 45.7101 150.065 45.7101C146.159 45.7101 142.805 44.3293 140.004 41.5677C137.243 38.7666 135.862 35.3934 135.862 31.4482V16.3578H143.377V31.4482C143.377 33.3025 144.028 34.9003 145.33 36.2416C146.672 37.5436 148.25 38.1945 150.065 38.1945C151.919 38.1945 153.497 37.5436 154.799 36.2416C156.14 34.9003 156.811 33.3025 156.811 31.4482V16.3578ZM183.063 37.4844H186.318V45H183.063C179.118 45 175.745 43.6192 172.944 40.8575C170.182 38.0564 168.801 34.6833 168.801 30.7381V5.5874H176.317V16.3578H184.898V23.9326H176.317V30.7381C176.317 32.5923 176.968 34.1901 178.27 35.5315C179.611 36.8334 181.209 37.4844 183.063 37.4844Z" fill="#49264E"/>
</g>
<defs>
<clipPath id="clip0_102_3171">
<rect width="201.863" height="64" fill="white"/>
</clipPath>
</defs>
</svg>
