<svg width="100" height="100" viewBox="0 0 100 100" fill="none" xmlns="http://www.w3.org/2000/svg">
<g clip-path="url(#clip0_153_10016)">
<path d="M100 50C100 74.957 81.7148 95.6426 57.8125 99.3926V64.4531H69.4629L71.6797 50H57.8125V40.6211C57.8125 36.666 59.75 32.8125 65.9609 32.8125H72.2656V20.5078C72.2656 20.5078 66.543 19.5313 61.0723 19.5313C49.6523 19.5313 42.1875 26.4531 42.1875 38.9844V50H29.4922V64.4531H42.1875V99.3926C18.2852 95.6426 0 74.957 0 50C0 22.3867 22.3867 0 50 0C77.6133 0 100 22.3867 100 50Z" fill="#CF8772"/>
<path d="M69.4629 64.4531L71.6797 50H57.8125V40.6209C57.8125 36.6668 59.7496 32.8125 65.9607 32.8125H72.2656V20.5078C72.2656 20.5078 66.5438 19.5312 61.0732 19.5312C49.6521 19.5312 42.1875 26.4531 42.1875 38.9844V50H29.4922V64.4531H42.1875V99.3924C44.7332 99.7918 47.3422 100 50 100C52.6578 100 55.2668 99.7918 57.8125 99.3924V64.4531H69.4629Z" fill="white"/>
</g>
<defs>
<clipPath id="clip0_153_10016">
<rect width="100" height="100" fill="white"/>
</clipPath>
</defs>
</svg>
