<svg width="32" height="32" viewBox="0 0 32 32" fill="none" xmlns="http://www.w3.org/2000/svg">
<path d="M12.7542 13.0554C12.7282 14.7307 14.2558 15.1891 15.7088 15.4784V10.7588C14.4639 10.8282 12.782 11.2549 12.7542 13.0554Z" fill="#CF8772"/>
<path d="M16 5.375C10.1413 5.375 5.375 10.1413 5.375 16C5.375 21.8587 10.1413 26.625 16 26.625C21.8587 26.625 26.625 21.8587 26.625 16C26.625 10.1413 21.8587 5.375 16 5.375ZM20.1616 13.0761C19.968 13.1472 19.752 13.0471 19.6812 12.852C19.429 12.1599 19.1364 11.7835 18.5217 11.3609C17.9975 11.0014 17.2986 10.8077 16.4587 10.7647V15.6309C17.5984 15.8545 20.0941 16.3863 19.9956 18.8067C19.9232 20.5848 18.6425 21.6621 16.4587 21.8218V23.6154C16.4587 23.8225 16.2908 23.9904 16.0837 23.9904C15.8767 23.9904 15.7087 23.8225 15.7087 23.6154V21.8353C14.6358 21.8109 13.7393 21.5686 13.054 21.0989C12.3098 20.5869 11.9197 20.0849 11.6143 19.2456C11.5432 19.051 11.6436 18.836 11.8384 18.7652C12.032 18.6946 12.2477 18.7947 12.3188 18.9893C12.5707 19.6812 12.8635 20.0576 13.4784 20.4804C14.0378 20.8639 14.7917 21.0627 15.7086 21.0858V16.2438C15.6757 16.2372 15.6502 16.2315 15.6149 16.2246C14.5228 16.01 11.966 15.5071 12.0041 13.0437C12.0325 11.2131 13.3765 10.1217 15.7086 10.0077V8.3845C15.7086 8.17745 15.8766 8.0095 16.0837 8.0095C16.2907 8.0095 16.4587 8.17745 16.4587 8.3845V10.0154C17.456 10.0613 18.2977 10.2978 18.9462 10.7424C19.6901 11.2539 20.0803 11.756 20.3857 12.5956C20.4565 12.7902 20.3562 13.0053 20.1616 13.0761Z" fill="#CF8772"/>
<path d="M16.459 21.0701C17.6615 20.9694 19.1763 20.4997 19.2463 18.7764C19.3117 17.1734 17.8799 16.6897 16.459 16.3965V21.0701Z" fill="#CF8772"/>
<path d="M26.1649 5.83565C23.1893 2.86005 19.0643 1.3415 14.8485 1.6701C7.74079 2.22385 2.06674 8.01485 1.65024 15.1401C1.47739 18.0934 2.19469 20.9731 3.72519 23.4792L2.36164 28.5666C2.27984 28.872 2.36459 29.1882 2.58819 29.4118C2.81184 29.6352 3.12749 29.7199 3.43339 29.6383L8.52079 28.2748C10.7827 29.6564 13.3484 30.3751 15.9986 30.3751C16.2845 30.3751 16.5721 30.3666 16.8599 30.3497C23.9852 29.9332 29.7759 24.2594 30.3297 17.1517C30.6583 12.9359 29.1402 8.81145 26.1649 5.83565ZM15.9998 27.3752C9.72764 27.3752 4.62484 22.2724 4.62484 16.0002C4.62484 9.728 9.72764 4.6252 15.9998 4.6252C22.272 4.6252 27.3748 9.728 27.3748 16.0002C27.3748 22.2724 22.272 27.3752 15.9998 27.3752Z" fill="#49264E"/>
</svg>
