<svg width="100" height="100" viewBox="0 0 100 100" fill="none" xmlns="http://www.w3.org/2000/svg">
<g clip-path="url(#clip0_153_10021)">
<path d="M100 50C100 22.3858 77.6142 0 50 0C22.3858 0 0 22.3858 0 50C0 77.6142 22.3858 100 50 100C77.6142 100 100 77.6142 100 50Z" fill="#CF8772"/>
<path opacity="0.1" d="M87.632 17.1056C80.3425 30.4872 70.0333 44.2898 57.1517 57.1714C44.2702 70.053 30.4675 80.3425 17.1057 87.6319C16.268 86.9039 15.4544 86.1451 14.6649 85.3556C9.8929 80.7429 6.08698 75.2264 3.46908 69.1276C0.85117 63.0288 -0.52634 56.4698 -0.58313 49.8331C-0.639921 43.1964 0.625145 36.6148 3.1383 30.4721C5.65146 24.3294 9.36241 18.7485 14.0548 14.0549C18.7471 9.3612 24.327 5.64869 30.469 3.13382C36.611 0.618952 43.1922 -0.647951 49.8289 -0.593013C56.4656 -0.538076 63.025 0.837603 69.1245 3.45381C75.224 6.07001 80.7417 9.87438 85.3557 14.6451C86.1452 15.4346 86.9039 16.2547 87.632 17.1056Z" fill="white"/>
<path d="M61.8425 23.6846H38.1583C34.3196 23.6846 30.6382 25.2095 27.9238 27.9238C25.2095 30.6382 23.6846 34.3196 23.6846 38.1583V61.8425C23.6846 65.6811 25.2095 69.3626 27.9238 72.0769C30.6382 74.7912 34.3196 76.3161 38.1583 76.3161H61.8425C65.6811 76.3161 69.3626 74.7912 72.0769 72.0769C74.7912 69.3626 76.3161 65.6811 76.3161 61.8425V38.1583C76.3161 34.3196 74.7912 30.6382 72.0769 27.9238C69.3626 25.2095 65.6811 23.6846 61.8425 23.6846ZM71.7109 59.7635C71.7109 62.9322 70.4521 65.971 68.2116 68.2116C65.971 70.4521 62.9322 71.7109 59.7635 71.7109H40.2372C37.0686 71.7109 34.0297 70.4521 31.7891 68.2116C29.5486 65.971 28.2898 62.9322 28.2898 59.7635V40.2372C28.2898 37.0686 29.5486 34.0297 31.7891 31.7891C34.0297 29.5486 37.0686 28.2898 40.2372 28.2898H59.7635C62.9322 28.2898 65.971 29.5486 68.2116 31.7891C70.4521 34.0297 71.7109 37.0686 71.7109 40.2372V59.7635Z" fill="white"/>
<path d="M59.5987 40.5001L59.4737 40.3751L59.3685 40.2698C56.881 37.7909 53.5119 36.3997 50.0001 36.4014C48.2266 36.4134 46.473 36.7748 44.8393 37.4648C43.2055 38.1548 41.7238 39.1599 40.4787 40.4228C39.2335 41.6856 38.2494 43.1814 37.5826 44.8247C36.9157 46.4681 36.5792 48.2266 36.5922 50.0001C36.5895 53.5991 38.0082 57.0536 40.5395 59.6119C41.7795 60.8669 43.257 61.8623 44.8858 62.5401C46.5146 63.2178 48.2622 63.5643 50.0264 63.5593C52.6727 63.5038 55.2456 62.6794 57.4315 61.1867C59.6173 59.6941 61.3216 57.5976 62.3364 55.153C63.3512 52.7083 63.6327 50.0213 63.1466 47.4194C62.6605 44.8175 61.4278 42.4133 59.5987 40.5001ZM50.0001 58.9211C48.2305 58.9459 46.4936 58.4438 45.0102 57.4788C43.5268 56.5137 42.3639 55.1293 41.6695 53.5015C40.9751 51.8737 40.7805 50.0762 41.1105 48.3375C41.4404 46.5989 42.2801 44.9976 43.5226 43.7375C44.7651 42.4773 46.3543 41.6151 48.0882 41.2607C49.822 40.9062 51.6221 41.0754 53.2595 41.7468C54.8969 42.4182 56.2976 43.5614 57.2835 45.031C58.2694 46.5007 58.7959 48.2303 58.7961 50.0001C58.8048 51.1635 58.5841 52.3173 58.1467 53.3954C57.7092 54.4735 57.0636 55.4548 56.2467 56.2833C55.4298 57.1118 54.4577 57.7712 53.3859 58.2238C52.314 58.6764 51.1635 58.9134 50.0001 58.9211Z" fill="white"/>
<path d="M67.3888 35.7764C67.3923 36.1986 67.3125 36.6173 67.1539 37.0086C66.9954 37.3998 66.7612 37.756 66.4648 38.0567C66.1684 38.3573 65.8157 38.5966 65.4267 38.7607C65.0377 38.9249 64.6202 39.0107 64.1981 39.0133C63.7794 39.0131 63.365 38.9298 62.9788 38.7683C62.5926 38.6068 62.2422 38.3703 61.9481 38.0725C61.5024 37.6203 61.1992 37.0472 61.0761 36.4243C60.9531 35.8014 61.0156 35.1561 61.2558 34.5683C61.4961 33.9806 61.9036 33.4764 62.4278 33.1181C62.952 32.7598 63.5698 32.5632 64.2046 32.5527C64.9477 32.5526 65.6672 32.8134 66.2375 33.2896L66.3033 33.3554C66.4094 33.4417 66.5064 33.5387 66.5928 33.6448L66.6652 33.7238C67.1361 34.304 67.3918 35.0292 67.3888 35.7764Z" fill="white"/>
</g>
<defs>
<clipPath id="clip0_153_10021">
<rect width="100" height="100" fill="white"/>
</clipPath>
</defs>
</svg>
