<svg width="1920" height="1024" viewBox="0 0 1920 1024" fill="none" xmlns="http://www.w3.org/2000/svg">
<g clip-path="url(#clip0_153_10042)">
<mask id="mask0_153_10042" style="mask-type:luminance" maskUnits="userSpaceOnUse" x="0" y="0" width="1920" height="1024">
<path d="M1920 0H0V1024H1920V0Z" fill="white"/>
</mask>
<g mask="url(#mask0_153_10042)">
<path d="M180.875 889.104C174.926 793.909 112.967 658.328 -2.76363 708.491C-83.5859 743.537 -134.721 828.556 -99.249 915.05C-70.8888 984.213 -7.85458 1015.49 64.4249 1014.31C96.896 1013.78 135.828 1012.43 157.944 985.298C179.037 959.439 182.87 921.224 180.875 889.104Z" fill="#CF8772"/>
<path d="M-383.282 1045.86C-383.282 1023.6 -382.561 974.259 -382.561 922.305C-382.561 862.789 -382.561 803.273 -382.561 743.757C-382.561 698.811 -382.561 653.865 -382.561 608.919C-382.561 598.988 -387.017 585.122 -380.247 577.119C-377.904 574.347 -374.209 572.273 -368.518 571.317C-326.589 564.275 -284.28 554.104 -241.737 547.414C-200.959 541.009 -154.15 534.872 -114.189 546.743C-51.9112 565.253 -18.1222 616.761 -18.8043 666.574C-19.5702 722.871 -49.1942 775.144 -78.4437 825.606C-96.8924 857.44 -122.016 888.257 -129.306 925.188C-137.658 967.513 -107.839 995.044 -66.7093 996.072C-10.0272 997.486 41.9029 966.904 89.3327 939.429C134.482 913.273 175.365 880.539 219.832 853.315C260.53 828.389 296.175 815.205 344.539 820.654C425.931 829.825 492.553 886.882 534.185 954.536C546.736 974.924 563.949 1001.12 564 1025.77C564 1027.78 563.971 1052 564 1052L-383.282 1045.86Z" fill="#49264E"/>
</g>
</g>
<defs>
<clipPath id="clip0_153_10042">
<rect width="1920" height="1024" fill="white"/>
</clipPath>
</defs>
</svg>
