<svg width="541" height="436" viewBox="0 0 541 436" fill="none" xmlns="http://www.w3.org/2000/svg">
<path fill-rule="evenodd" clip-rule="evenodd" d="M90.5221 420.793C50.6692 378.41 26.3809 322.165 26.3809 260.49C26.3809 128.733 137.256 21.7637 273.824 21.7637C410.392 21.7637 521.261 128.733 521.261 260.49C521.261 322.165 496.966 378.41 457.113 420.793H90.5221Z" fill="#FFDED4"/>
<path fill-rule="evenodd" clip-rule="evenodd" d="M57.2467 420.793C21.3951 376.578 0.0175781 320.924 0.0175781 260.49C0.0175781 116.723 121 0 270.018 0C419.035 0 540.018 116.723 540.018 260.49C540.018 320.924 518.64 376.578 482.788 420.793H480.099C516.281 376.725 537.904 321.024 537.904 260.49C537.907 117.847 417.876 2.03846 270.018 2.03846C122.159 2.03846 2.12841 117.847 2.12841 260.49C2.12841 321.024 23.7463 376.725 59.9334 420.793H57.2467Z" fill="#FFDED4"/>
<path fill-rule="evenodd" clip-rule="evenodd" d="M480.278 287.426L485.216 269.341C490.26 250.863 479.366 231.764 460.901 226.717C442.437 221.671 423.353 232.572 418.309 251.048L407.089 292.143L392.816 288.241L404.035 247.146C411.232 220.785 438.465 205.23 464.801 212.432C491.138 219.633 506.685 246.886 499.489 273.241L494.552 291.328L491.467 290.485L490.64 293.515L493.724 294.36L492.654 298.277L478.381 294.375L479.451 290.457L482.536 291.3L483.363 288.268L480.278 287.425V287.426Z" fill="#585E64" stroke="#49264E" stroke-width="1.88802" stroke-linejoin="round"/>
<path fill-rule="evenodd" clip-rule="evenodd" d="M446.005 281.284C483.778 291.612 506.069 330.687 495.749 368.485C485.429 406.284 446.383 428.593 408.611 418.267C370.839 407.94 348.548 368.865 358.868 331.065C369.188 293.265 408.233 270.958 446.005 281.284Z" fill="#CF8772" stroke="#49264E" stroke-width="1.88802" stroke-linecap="round" stroke-linejoin="round"/>
<path fill-rule="evenodd" clip-rule="evenodd" d="M441.3 298.52C469.568 306.249 486.246 335.491 478.526 363.78C470.806 392.069 441.584 408.759 413.316 401.033C385.047 393.308 368.37 364.063 376.089 335.774C383.809 307.485 413.031 290.795 441.3 298.52Z" fill="#CF8772"/>
<mask id="mask0_173_8520" style="mask-type:luminance" maskUnits="userSpaceOnUse" x="374" y="296" width="107" height="107">
<path d="M441.302 298.52C469.57 306.249 486.248 335.491 478.528 363.78C470.808 392.069 441.586 408.759 413.317 401.033C385.049 393.308 368.372 364.063 376.091 335.774C383.811 307.485 413.033 290.795 441.302 298.52Z" fill="white"/>
</mask>
<g mask="url(#mask0_173_8520)">
<path fill-rule="evenodd" clip-rule="evenodd" d="M435.932 292.562C464.318 300.33 481.069 329.687 473.314 358.088C465.559 386.49 436.217 403.258 407.836 395.497C379.454 387.737 362.701 358.373 370.455 329.971C378.21 301.569 407.551 284.802 435.934 292.562H435.932Z" fill="white"/>
</g>
<path d="M441.3 298.52C469.568 306.249 486.246 335.491 478.526 363.78C470.806 392.069 441.584 408.759 413.316 401.033C385.047 393.308 368.37 364.063 376.089 335.774C383.809 307.485 413.031 290.795 441.3 298.52Z" stroke="#49264E" stroke-width="1.88802" stroke-linecap="round" stroke-linejoin="round"/>
<path fill-rule="evenodd" clip-rule="evenodd" d="M422.872 344.797C421.138 343.046 420.031 340.772 419.721 338.327C419.411 335.883 419.915 333.404 421.157 331.276C422.398 329.147 424.306 327.488 426.586 326.556C428.865 325.624 431.389 325.471 433.764 326.12C436.14 326.77 438.235 328.185 439.724 330.148C441.213 332.11 442.014 334.51 442.002 336.974C441.989 339.438 441.165 341.83 439.656 343.777C438.147 345.724 436.038 347.119 433.656 347.745L425.769 376.619L414.994 373.67L422.882 344.795L422.872 344.797Z" fill="#CF8772" stroke="#49264E" stroke-width="1.88802" stroke-linecap="round" stroke-linejoin="round"/>
<path d="M123.666 222.749V390.27H324.542" stroke="#49264E" stroke-width="1.88802" stroke-linejoin="round" stroke-dasharray="1.89 1.89"/>
<path fill-rule="evenodd" clip-rule="evenodd" d="M215.154 299.326C220.142 299.326 224.185 303.436 224.185 308.506V412.861C224.185 417.931 220.142 422.041 215.154 422.041H167.204C162.216 422.041 158.172 417.931 158.172 412.861V308.506C158.172 303.436 162.216 299.326 167.204 299.326H215.154Z" fill="#CF8772"/>
<mask id="mask1_173_8520" style="mask-type:luminance" maskUnits="userSpaceOnUse" x="158" y="299" width="67" height="124">
<path d="M215.158 299.325C220.146 299.325 224.189 303.435 224.189 308.505V412.86C224.189 417.93 220.146 422.04 215.158 422.04H167.208C162.22 422.04 158.176 417.93 158.176 412.86V308.505C158.176 303.435 162.22 299.325 167.208 299.325H215.158Z" fill="white"/>
</mask>
<g mask="url(#mask1_173_8520)">
<path fill-rule="evenodd" clip-rule="evenodd" d="M213.268 296.858C218.255 296.858 222.299 300.968 222.299 306.037V410.393C222.299 415.462 218.255 419.573 213.268 419.573H165.318C160.33 419.573 156.287 415.462 156.287 410.393V306.037C156.287 300.968 160.33 296.858 165.318 296.858H213.268Z" fill="#CF8772"/>
</g>
<path d="M215.154 299.326C220.142 299.326 224.185 303.436 224.185 308.506V412.861C224.185 417.931 220.142 422.041 215.154 422.041H167.204C162.216 422.041 158.172 417.931 158.172 412.861V308.506C158.172 303.436 162.216 299.326 167.204 299.326H215.154Z" stroke="#49264E" stroke-width="1.88802" stroke-linecap="round" stroke-linejoin="round"/>
<path fill-rule="evenodd" clip-rule="evenodd" d="M220.759 313.9V407.465H161.598V313.9H220.759Z" fill="#E7F4FF" stroke="#49264E" stroke-width="1.88802" stroke-linecap="round" stroke-linejoin="round"/>
<path fill-rule="evenodd" clip-rule="evenodd" d="M195.03 410.698C195.293 410.699 195.554 410.751 195.797 410.854C196.04 410.956 196.26 411.105 196.444 411.293C196.82 411.677 197.03 412.193 197.03 412.73V417.42C197.031 417.958 196.82 418.474 196.444 418.858C196.26 419.046 196.04 419.196 195.797 419.298C195.554 419.4 195.293 419.453 195.03 419.453H187.325C187.061 419.453 186.801 419.4 186.558 419.298C186.315 419.196 186.095 419.046 185.91 418.858C185.534 418.475 185.323 417.958 185.324 417.42V412.73C185.323 412.193 185.534 411.677 185.91 411.293C186.095 411.105 186.315 410.956 186.558 410.854C186.801 410.751 187.061 410.699 187.325 410.698H195.03Z" fill="#CF8772" stroke="#49264E" stroke-width="1.88802" stroke-linecap="round" stroke-linejoin="round"/>
<path fill-rule="evenodd" clip-rule="evenodd" d="M191.178 304.724C191.768 304.715 192.347 304.881 192.842 305.203C193.336 305.524 193.725 305.985 193.957 306.528C194.189 307.07 194.254 307.67 194.145 308.25C194.035 308.83 193.756 309.364 193.342 309.785C192.929 310.205 192.399 310.493 191.821 310.612C191.244 310.73 190.644 310.674 190.098 310.45C189.552 310.227 189.085 309.846 188.756 309.356C188.428 308.865 188.252 308.289 188.252 307.698C188.246 306.916 188.551 306.163 189.1 305.605C189.649 305.048 190.396 304.731 191.178 304.724Z" fill="#CF8772" stroke="#49264E" stroke-width="1.88802" stroke-linecap="round" stroke-linejoin="round"/>
<path fill-rule="evenodd" clip-rule="evenodd" d="M407.099 255.966V388.597C407.099 407.055 392.126 422.041 373.682 422.041H235.922C217.478 422.041 202.504 407.055 202.504 388.597V255.966C202.504 237.508 217.478 222.522 235.922 222.522H373.68C392.125 222.522 407.098 237.508 407.098 255.966H407.099Z" fill="white" stroke="#49264E" stroke-width="1.88802" stroke-linecap="round" stroke-linejoin="round"/>
<path fill-rule="evenodd" clip-rule="evenodd" d="M296.53 268.021C294.528 268.022 292.546 268.416 290.697 269.183C288.847 269.95 287.167 271.074 285.752 272.491C284.337 273.908 283.215 275.59 282.449 277.441C281.684 279.292 281.29 281.276 281.291 283.279V304.804H326.872V283.279C326.872 279.234 325.266 275.355 322.408 272.495C319.55 269.635 315.673 268.028 311.631 268.028L296.53 268.021Z" fill="#CF8772" stroke="#49264E" stroke-width="0.0302083" stroke-linecap="round" stroke-linejoin="round"/>
<path fill-rule="evenodd" clip-rule="evenodd" d="M295.682 248.177V258.259C295.682 260.489 296.567 262.628 298.143 264.205C299.719 265.782 301.856 266.668 304.085 266.668C306.314 266.668 308.451 265.782 310.027 264.205C311.603 262.628 312.488 260.489 312.488 258.259V248.177C312.488 245.947 311.603 243.808 310.027 242.231C308.451 240.654 306.314 239.768 304.085 239.768C301.856 239.768 299.719 240.654 298.143 242.231C296.567 243.808 295.682 245.947 295.682 248.177Z" fill="#CF8772" stroke="#49264E" stroke-width="0.0302083" stroke-linecap="round" stroke-linejoin="round"/>
<path fill-rule="evenodd" clip-rule="evenodd" d="M304.526 376.829C307.289 376.83 309.991 377.651 312.288 379.188C314.585 380.725 316.376 382.909 317.433 385.464C318.49 388.019 318.766 390.831 318.226 393.543C317.687 396.255 316.356 398.747 314.401 400.702C312.447 402.657 309.957 403.989 307.247 404.528C304.536 405.067 301.727 404.79 299.174 403.731C296.621 402.673 294.439 400.881 292.903 398.581C291.368 396.282 290.549 393.578 290.549 390.813C290.55 387.104 292.023 383.549 294.643 380.927C297.263 378.305 300.817 376.831 304.522 376.829H304.526Z" fill="#49264E"/>
<mask id="mask2_173_8520" style="mask-type:luminance" maskUnits="userSpaceOnUse" x="290" y="376" width="29" height="29">
<path d="M304.53 376.829C307.293 376.83 309.995 377.651 312.292 379.188C314.589 380.725 316.38 382.909 317.437 385.464C318.494 388.019 318.77 390.831 318.23 393.543C317.691 396.255 316.36 398.747 314.405 400.702C312.451 402.657 309.961 403.989 307.251 404.528C304.54 405.067 301.731 404.79 299.178 403.731C296.625 402.673 294.443 400.881 292.907 398.581C291.372 396.282 290.553 393.578 290.553 390.813C290.554 387.104 292.027 383.549 294.647 380.927C297.267 378.305 300.821 376.831 304.526 376.829H304.53Z" fill="white"/>
</mask>
<g mask="url(#mask2_173_8520)">
<path fill-rule="evenodd" clip-rule="evenodd" d="M317.75 386.281C318.372 388.1 318.612 390.029 318.456 391.945C318.3 393.861 317.751 395.725 316.843 397.42C315.935 399.114 314.687 400.603 313.178 401.793C311.669 402.983 309.931 403.849 308.072 404.337C306.214 404.825 304.275 404.924 302.376 404.628C300.478 404.331 298.661 403.647 297.039 402.616C295.416 401.586 294.024 400.232 292.948 398.638C291.873 397.045 291.137 395.247 290.787 393.356C291.933 396.694 294.297 399.475 297.406 401.141C300.515 402.807 304.138 403.235 307.549 402.34C310.96 401.445 313.907 399.293 315.799 396.314C317.691 393.336 318.388 389.752 317.75 386.281Z" fill="#49264E"/>
<path fill-rule="evenodd" clip-rule="evenodd" d="M291.304 395.343C290.683 393.524 290.444 391.596 290.602 389.681C290.759 387.765 291.309 385.902 292.218 384.209C293.127 382.515 294.374 381.028 295.883 379.838C297.392 378.649 299.13 377.784 300.988 377.297C302.846 376.809 304.785 376.711 306.682 377.007C308.58 377.303 310.397 377.987 312.019 379.017C313.64 380.047 315.033 381.4 316.108 382.992C317.184 384.585 317.921 386.382 318.271 388.272C317.128 384.931 314.764 382.148 311.654 380.479C308.545 378.81 304.919 378.38 301.506 379.275C298.093 380.17 295.144 382.324 293.252 385.304C291.36 388.284 290.664 391.871 291.304 395.343Z" fill="#49264E"/>
<path fill-rule="evenodd" clip-rule="evenodd" d="M303.63 376.847C308.109 376.264 311.861 376.698 312.005 377.814C312.149 378.93 308.633 380.307 304.156 380.889C299.679 381.47 295.926 381.038 295.782 379.921C295.638 378.805 299.153 377.428 303.63 376.847Z" fill="#49264E"/>
</g>
<path d="M304.526 376.829C307.289 376.83 309.991 377.651 312.288 379.188C314.585 380.725 316.376 382.909 317.433 385.464C318.49 388.019 318.766 390.831 318.226 393.543C317.687 396.255 316.356 398.747 314.401 400.702C312.447 402.657 309.957 403.989 307.247 404.528C304.536 405.067 301.727 404.79 299.174 403.731C296.621 402.673 294.439 400.881 292.903 398.581C291.368 396.282 290.549 393.578 290.549 390.813C290.55 387.104 292.023 383.549 294.643 380.927C297.263 378.305 300.817 376.831 304.522 376.829H304.526Z" stroke="#49264E" stroke-width="0.0302083" stroke-linecap="round" stroke-linejoin="round"/>
<path fill-rule="evenodd" clip-rule="evenodd" d="M303.412 395.749C303.255 395.905 303.044 395.993 302.823 395.993C302.602 395.993 302.39 395.905 302.234 395.749L298.315 391.823C298.008 391.516 297.836 391.1 297.836 390.666C297.836 390.232 298.008 389.815 298.315 389.508C298.467 389.356 298.647 389.235 298.846 389.153C299.044 389.071 299.257 389.028 299.472 389.028C299.687 389.028 299.899 389.071 300.098 389.153C300.296 389.235 300.477 389.356 300.629 389.508L302.659 391.543C302.681 391.564 302.706 391.581 302.735 391.593C302.763 391.605 302.793 391.611 302.823 391.61C302.854 391.611 302.884 391.605 302.913 391.594C302.941 391.582 302.967 391.565 302.989 391.543L308.422 386.11C308.729 385.803 309.145 385.631 309.579 385.631C310.013 385.631 310.429 385.803 310.736 386.11C311.043 386.417 311.215 386.834 311.215 387.268C311.215 387.702 311.043 388.119 310.736 388.426L303.412 395.748V395.749Z" fill="white" stroke="#49264E" stroke-width="0.0302083" stroke-linecap="round" stroke-linejoin="round"/>
<path fill-rule="evenodd" clip-rule="evenodd" d="M375.276 318.627C375.776 318.627 376.256 318.826 376.61 319.18C376.963 319.533 377.162 320.013 377.162 320.514V332.017C377.161 332.517 376.963 332.997 376.609 333.35C376.256 333.704 375.776 333.903 375.276 333.903H234.329C233.829 333.903 233.349 333.704 232.996 333.35C232.642 332.997 232.444 332.517 232.443 332.017V320.519C232.443 320.018 232.642 319.538 232.996 319.185C233.349 318.831 233.829 318.632 234.329 318.632L375.276 318.627Z" fill="#5D786C" stroke="#49264E" stroke-width="0.0302083" stroke-linecap="round" stroke-linejoin="round"/>
<path fill-rule="evenodd" clip-rule="evenodd" d="M375.276 347.729C375.776 347.729 376.256 347.927 376.61 348.281C376.963 348.635 377.162 349.115 377.162 349.615V361.113C377.162 361.614 376.963 362.094 376.61 362.447C376.256 362.801 375.776 363 375.276 363H234.329C233.829 363 233.349 362.801 232.996 362.447C232.642 362.094 232.443 361.614 232.443 361.113V349.615C232.443 349.115 232.642 348.635 232.996 348.281C233.349 347.927 233.829 347.729 234.329 347.729H375.276Z" fill="#CF8772" stroke="#49264E" stroke-width="0.0302083" stroke-linecap="round" stroke-linejoin="round"/>
<path fill-rule="evenodd" clip-rule="evenodd" d="M320.13 326.262C320.129 326.769 319.928 327.254 319.571 327.612C319.213 327.97 318.728 328.171 318.222 328.172H247.197C246.943 328.178 246.689 328.134 246.452 328.041C246.215 327.948 245.999 327.808 245.816 327.63C245.634 327.452 245.489 327.24 245.39 327.005C245.291 326.77 245.24 326.518 245.24 326.263C245.24 326.008 245.291 325.756 245.39 325.521C245.489 325.286 245.634 325.073 245.816 324.896C245.999 324.718 246.215 324.578 246.452 324.485C246.689 324.392 246.943 324.348 247.197 324.354H318.218C318.724 324.354 319.209 324.555 319.567 324.913C319.925 325.271 320.126 325.756 320.126 326.262H320.13Z" fill="white" stroke="#49264E" stroke-width="0.0302083" stroke-linecap="round" stroke-linejoin="round"/>
<path fill-rule="evenodd" clip-rule="evenodd" d="M359.744 326.262C359.744 326.768 359.543 327.254 359.186 327.612C358.828 327.97 358.343 328.171 357.838 328.172H328.779C328.525 328.178 328.271 328.134 328.034 328.041C327.797 327.948 327.581 327.808 327.399 327.63C327.216 327.452 327.071 327.24 326.972 327.005C326.873 326.77 326.822 326.518 326.822 326.263C326.822 326.008 326.873 325.756 326.972 325.521C327.071 325.286 327.216 325.073 327.399 324.896C327.581 324.718 327.797 324.578 328.034 324.485C328.271 324.392 328.525 324.348 328.779 324.354H357.838C358.343 324.354 358.828 324.555 359.186 324.913C359.543 325.271 359.744 325.756 359.744 326.262Z" fill="white" stroke="#49264E" stroke-width="0.0302083" stroke-linecap="round" stroke-linejoin="round"/>
<path fill-rule="evenodd" clip-rule="evenodd" d="M243.726 351.546C244.481 351.546 245.219 351.77 245.846 352.19C246.474 352.609 246.963 353.206 247.252 353.904C247.541 354.601 247.616 355.369 247.469 356.11C247.321 356.851 246.958 357.531 246.424 358.065C245.89 358.599 245.21 358.963 244.47 359.11C243.73 359.258 242.962 359.182 242.265 358.892C241.568 358.603 240.972 358.114 240.553 357.485C240.133 356.857 239.91 356.119 239.91 355.363C239.911 354.351 240.313 353.38 241.029 352.664C241.744 351.949 242.714 351.546 243.726 351.546Z" fill="white" stroke="#49264E" stroke-width="0.0302083" stroke-linecap="round" stroke-linejoin="round"/>
<path fill-rule="evenodd" clip-rule="evenodd" d="M254.635 351.546C255.39 351.546 256.128 351.769 256.756 352.189C257.383 352.608 257.873 353.205 258.162 353.903C258.451 354.601 258.526 355.369 258.379 356.109C258.232 356.85 257.868 357.531 257.335 358.065C256.801 358.599 256.121 358.963 255.38 359.11C254.64 359.258 253.873 359.182 253.175 358.893C252.478 358.603 251.882 358.114 251.463 357.486C251.044 356.857 250.82 356.119 250.82 355.363C250.821 354.351 251.223 353.381 251.938 352.665C252.654 351.949 253.624 351.547 254.635 351.546Z" fill="white" stroke="#49264E" stroke-width="0.0302083" stroke-linecap="round" stroke-linejoin="round"/>
<path fill-rule="evenodd" clip-rule="evenodd" d="M265.547 351.546C266.302 351.546 267.04 351.769 267.668 352.189C268.295 352.608 268.785 353.205 269.074 353.903C269.363 354.601 269.438 355.369 269.291 356.109C269.144 356.85 268.781 357.531 268.247 358.065C267.713 358.599 267.033 358.963 266.293 359.11C265.552 359.258 264.785 359.182 264.088 358.893C263.39 358.603 262.794 358.114 262.375 357.486C261.956 356.857 261.732 356.119 261.732 355.363C261.733 354.351 262.135 353.381 262.85 352.665C263.566 351.949 264.536 351.547 265.547 351.546Z" fill="white" stroke="#49264E" stroke-width="0.0302083" stroke-linecap="round" stroke-linejoin="round"/>
<path fill-rule="evenodd" clip-rule="evenodd" d="M276.456 351.546C277.211 351.545 277.949 351.768 278.577 352.187C279.205 352.606 279.695 353.202 279.985 353.9C280.274 354.598 280.351 355.366 280.204 356.107C280.057 356.848 279.694 357.529 279.16 358.064C278.627 358.598 277.947 358.962 277.206 359.11C276.466 359.258 275.698 359.182 275.001 358.893C274.303 358.604 273.707 358.114 273.287 357.486C272.868 356.858 272.644 356.119 272.645 355.363C272.645 354.351 273.047 353.38 273.763 352.664C274.479 351.949 275.449 351.546 276.461 351.546H276.456Z" fill="white" stroke="#49264E" stroke-width="0.0302083" stroke-linecap="round" stroke-linejoin="round"/>
<path fill-rule="evenodd" clip-rule="evenodd" d="M287.366 351.546C288.12 351.546 288.858 351.769 289.486 352.189C290.114 352.608 290.603 353.205 290.892 353.903C291.181 354.601 291.257 355.369 291.11 356.109C290.962 356.85 290.599 357.531 290.065 358.065C289.531 358.599 288.851 358.963 288.111 359.11C287.371 359.258 286.603 359.182 285.906 358.893C285.209 358.603 284.613 358.114 284.193 357.486C283.774 356.857 283.551 356.119 283.551 355.363C283.551 354.351 283.954 353.381 284.669 352.665C285.384 351.949 286.354 351.547 287.366 351.546Z" fill="white" stroke="#49264E" stroke-width="0.0302083" stroke-linecap="round" stroke-linejoin="round"/>
<path fill-rule="evenodd" clip-rule="evenodd" d="M298.278 351.546C299.033 351.546 299.77 351.769 300.398 352.189C301.026 352.608 301.515 353.205 301.804 353.903C302.093 354.601 302.169 355.369 302.022 356.109C301.874 356.85 301.511 357.531 300.977 358.065C300.443 358.599 299.763 358.963 299.023 359.11C298.283 359.258 297.515 359.182 296.818 358.893C296.121 358.603 295.525 358.114 295.105 357.486C294.686 356.857 294.463 356.119 294.463 355.363C294.464 354.351 294.866 353.381 295.581 352.665C296.296 351.949 297.266 351.547 298.278 351.546Z" fill="white" stroke="#49264E" stroke-width="0.0302083" stroke-linecap="round" stroke-linejoin="round"/>
<path fill-rule="evenodd" clip-rule="evenodd" d="M309.188 351.546C309.943 351.546 310.681 351.769 311.308 352.189C311.936 352.608 312.425 353.205 312.714 353.903C313.003 354.601 313.079 355.369 312.932 356.109C312.785 356.85 312.421 357.531 311.887 358.065C311.354 358.599 310.674 358.963 309.933 359.11C309.193 359.258 308.425 359.182 307.728 358.893C307.031 358.603 306.435 358.114 306.016 357.486C305.596 356.857 305.373 356.119 305.373 355.363C305.374 354.351 305.776 353.381 306.491 352.665C307.207 351.949 308.176 351.547 309.188 351.546Z" fill="white" stroke="#49264E" stroke-width="0.0302083" stroke-linecap="round" stroke-linejoin="round"/>
<path fill-rule="evenodd" clip-rule="evenodd" d="M407.1 87.0962V170.459C407.1 182.061 397.689 191.479 386.096 191.479H299.51C287.918 191.479 278.506 182.061 278.506 170.459V87.0962C278.506 75.4944 287.918 66.0752 299.51 66.0752H386.096C397.689 66.0752 407.1 75.4944 407.1 87.0962Z" fill="white" stroke="#49264E" stroke-width="1.88802" stroke-linecap="round" stroke-linejoin="round"/>
<path fill-rule="evenodd" clip-rule="evenodd" d="M355.896 80.6279V116.583H394.579V80.6279H355.896Z" fill="#49264E" stroke="#49264E" stroke-width="0.0302083" stroke-linecap="round" stroke-linejoin="round"/>
<path fill-rule="evenodd" clip-rule="evenodd" d="M350.65 82.8343V80.6279H291.025V82.8343H350.65Z" fill="#49264E" stroke="#49264E" stroke-width="0.0302083" stroke-linejoin="round"/>
<path fill-rule="evenodd" clip-rule="evenodd" d="M350.649 92.7379V90.5303H311.967V92.7379H350.649Z" fill="#49264E" stroke="#49264E" stroke-width="0.0302083" stroke-linejoin="round"/>
<path fill-rule="evenodd" clip-rule="evenodd" d="M350.649 104.089V101.883H304.922V104.089H350.649Z" fill="#49264E" stroke="#49264E" stroke-width="0.0302083" stroke-linejoin="round"/>
<path fill-rule="evenodd" clip-rule="evenodd" d="M350.651 115.441V113.234H296.596V115.441H350.651Z" fill="#49264E" stroke="#49264E" stroke-width="0.0302083" stroke-linejoin="round"/>
<path d="M394.578 130.039H291.025V135.564H394.578V130.039Z" fill="#E0E3E5" stroke="#49264E" stroke-width="0.0302083" stroke-linejoin="round"/>
<path d="M394.578 141.199H291.025V146.727H394.578V141.199Z" fill="#E0E3E5" stroke="#49264E" stroke-width="0.0302083" stroke-linejoin="round"/>
<path d="M394.578 162.082H291.025V167.61H394.578V162.082Z" fill="#E0E3E5" stroke="#49264E" stroke-width="0.0302083" stroke-linejoin="round"/>
<path d="M394.578 171.402H291.025V176.928H394.578V171.402Z" fill="#E0E3E5" stroke="#49264E" stroke-width="0.0302083" stroke-linejoin="round"/>
<path d="M394.578 130.039H328.41V135.564H394.578V130.039Z" fill="#FFDED4" stroke="#49264E" stroke-width="0.0302083" stroke-linejoin="round"/>
<path d="M394.578 141.199H340.711V146.727H394.578V141.199Z" fill="#CF8772" stroke="#49264E" stroke-width="0.0302083" stroke-linejoin="round"/>
<path d="M394.578 151.759H291.025V157.284H394.578V151.759Z" fill="#CF8772" stroke="#49264E" stroke-width="0.0302083" stroke-linejoin="round"/>
<path d="M394.578 162.082H300.812V167.61H394.578V162.082Z" fill="#FFDED4" stroke="#49264E" stroke-width="0.0302083" stroke-linejoin="round"/>
<path d="M394.578 171.402H322.689V176.928H394.578V171.402Z" fill="#CF8772" stroke="#49264E" stroke-width="0.0302083" stroke-linejoin="round"/>
<path fill-rule="evenodd" clip-rule="evenodd" d="M117.632 37.3773C121.577 36.261 125.754 36.261 129.699 37.3773L192.423 55.1395C197.065 56.4551 201.151 59.2506 204.06 63.1015C206.97 66.9524 208.544 71.6484 208.544 76.4763V188.003C208.547 191.188 207.864 194.336 206.541 197.233C190.748 231.672 159.904 259.312 123.66 273.808C87.4269 259.312 56.582 231.672 40.7958 197.233C39.4709 194.336 38.7852 191.188 38.7852 188.003V76.4763C38.7854 71.6481 40.3602 66.9519 43.2703 63.1009C46.1805 59.2499 50.2671 56.4546 54.9094 55.1395L117.633 37.3773H117.632Z" fill="#CF8772"/>
<mask id="mask3_173_8520" style="mask-type:luminance" maskUnits="userSpaceOnUse" x="38" y="36" width="171" height="238">
<path d="M117.63 37.3783C121.575 36.2619 125.752 36.2619 129.697 37.3783L192.421 55.1405C197.063 56.4561 201.149 59.2516 204.058 63.1025C206.968 66.9534 208.542 71.6494 208.542 76.4773V188.004C208.545 191.189 207.862 194.337 206.539 197.234C190.746 231.673 159.902 259.313 123.658 273.809C87.425 259.313 56.58 231.673 40.7939 197.234C39.469 194.337 38.7832 191.189 38.7832 188.004V76.4773C38.7834 71.6491 40.3582 66.9529 43.2684 63.1019C46.1786 59.2509 50.2651 56.4556 54.9074 55.1405L117.631 37.3783H117.63Z" fill="white"/>
</mask>
<g mask="url(#mask3_173_8520)">
<path fill-rule="evenodd" clip-rule="evenodd" d="M208.546 36.541V273.809H123.666V36.541H208.546Z" fill="#CF8772"/>
</g>
<path d="M117.632 37.3773C121.577 36.261 125.754 36.261 129.699 37.3773L192.423 55.1395C197.065 56.4551 201.151 59.2506 204.06 63.1015C206.97 66.9524 208.544 71.6484 208.544 76.4763V188.003C208.547 191.188 207.864 194.336 206.541 197.233C190.748 231.672 159.904 259.312 123.66 273.808C87.4269 259.312 56.582 231.672 40.7958 197.233C39.4709 194.336 38.7852 191.188 38.7852 188.003V76.4763C38.7854 71.6481 40.3602 66.9519 43.2703 63.1009C46.1805 59.2499 50.2671 56.4546 54.9094 55.1395L117.633 37.3773H117.632Z" stroke="#CF8772" stroke-width="1.88802" stroke-linecap="round" stroke-linejoin="round"/>
<path fill-rule="evenodd" clip-rule="evenodd" d="M119.11 66.234C122.088 65.3908 125.242 65.3908 128.22 66.234L175.579 79.6399C179.084 80.6325 182.17 82.7429 184.367 85.6505C186.564 88.5582 187.753 92.1041 187.753 95.7496V179.957C187.754 182.364 187.236 184.743 186.234 186.931C174.314 212.933 151.026 233.802 123.661 244.747C96.3036 233.802 73.0156 212.933 61.0968 186.931C60.0964 184.745 59.5785 182.368 59.5781 179.963V95.7559C59.5779 92.1104 60.7668 88.5645 62.9641 85.6568C65.1614 82.7492 68.2471 80.6387 71.7523 79.6462L119.11 66.2402V66.234Z" fill="#49264E"/>
<mask id="mask4_173_8520" style="mask-type:luminance" maskUnits="userSpaceOnUse" x="59" y="65" width="129" height="180">
<path d="M119.114 66.235C122.092 65.3917 125.246 65.3917 128.224 66.235L175.583 79.6409C179.088 80.6335 182.174 82.7439 184.371 85.6515C186.568 88.5592 187.757 92.1051 187.757 95.7506V179.958C187.757 182.365 187.239 184.744 186.238 186.932C174.318 212.934 151.03 233.803 123.664 244.748C96.3075 233.803 73.0195 212.934 61.1007 186.932C60.1003 184.746 59.5824 182.369 59.582 179.964V95.7569C59.5818 92.1114 60.7707 88.5654 62.968 85.6578C65.1653 82.7501 68.251 80.6397 71.7562 79.6472L119.114 66.2412V66.235Z" fill="white"/>
</mask>
<g mask="url(#mask4_173_8520)">
<path fill-rule="evenodd" clip-rule="evenodd" d="M187.755 65.6025V244.749H123.668V65.6025H187.755Z" fill="#49264E"/>
</g>
<path d="M119.11 66.234C122.088 65.3908 125.242 65.3908 128.22 66.234L175.579 79.6399C179.084 80.6325 182.17 82.7429 184.367 85.6505C186.564 88.5582 187.753 92.1041 187.753 95.7496V179.957C187.754 182.364 187.236 184.743 186.234 186.931C174.314 212.933 151.026 233.802 123.661 244.747C96.3036 233.802 73.0156 212.933 61.0968 186.931C60.0964 184.745 59.5785 182.368 59.5781 179.963V95.7559C59.5779 92.1104 60.7668 88.5645 62.9641 85.6568C65.1614 82.7492 68.2471 80.6387 71.7523 79.6462L119.11 66.2402V66.234Z" stroke="#49264E" stroke-width="1.88802" stroke-linecap="round" stroke-linejoin="round"/>
<path fill-rule="evenodd" clip-rule="evenodd" d="M123.661 106.038C150.76 106.038 172.761 128.056 172.761 155.175C172.761 182.294 150.765 204.313 123.661 204.313C96.5567 204.313 74.5645 182.297 74.5645 155.175C74.5645 128.054 96.5654 106.038 123.661 106.038Z" fill="white"/>
<mask id="mask5_173_8520" style="mask-type:luminance" maskUnits="userSpaceOnUse" x="74" y="106" width="99" height="99">
<path d="M123.659 106.037C150.758 106.037 172.759 128.055 172.759 155.174C172.759 182.293 150.763 204.312 123.659 204.312C96.5547 204.312 74.5625 182.296 74.5625 155.174C74.5625 128.053 96.5635 106.037 123.659 106.037Z" fill="white"/>
</mask>
<g mask="url(#mask5_173_8520)">
<path fill-rule="evenodd" clip-rule="evenodd" d="M84.2453 184.461C77.9446 176 74.5479 165.726 74.5625 155.174C74.5625 128.055 96.5635 106.037 123.664 106.037C135.391 106.023 146.732 110.226 155.621 117.881C161.921 126.342 165.317 136.615 165.302 147.167C165.302 174.287 143.301 196.304 116.202 196.304C104.475 196.319 93.134 192.115 84.2453 184.461Z" fill="white"/>
</g>
<path d="M123.661 106.038C150.76 106.038 172.761 128.056 172.761 155.175C172.761 182.294 150.765 204.313 123.661 204.313C96.5567 204.313 74.5645 182.297 74.5645 155.175C74.5645 128.054 96.5654 106.038 123.661 106.038Z" stroke="#49264E" stroke-width="1.88802" stroke-linecap="round" stroke-linejoin="round"/>
<path fill-rule="evenodd" clip-rule="evenodd" d="M116.164 180.251L116.163 180.252L91.2109 155.255L101.408 145.061L116.174 159.854L145.932 130.099L156.121 140.303L116.165 180.252L116.164 180.251Z" fill="#49264E" stroke="#49264E" stroke-width="1.88802" stroke-linecap="round" stroke-linejoin="round"/>
<path fill-rule="evenodd" clip-rule="evenodd" d="M462.726 319.226L470.536 329.509L474.166 352.256C474.787 356.147 476.294 359.844 478.571 363.06C480.849 366.275 483.835 368.923 487.298 370.798C490.892 372.735 493.991 375.476 496.354 378.807C498.716 382.138 500.279 385.97 500.92 390.004C503.229 404.497 493.345 418.14 478.864 420.449C464.382 422.758 450.749 412.871 448.441 398.378C447.796 394.345 448.089 390.216 449.299 386.315C450.508 382.413 452.601 378.844 455.414 375.884C458.123 373.022 460.138 369.576 461.302 365.811C462.467 362.045 462.75 358.062 462.13 354.17C459.822 339.671 456.716 320.178 456.716 320.178L450.545 281.453C451.336 281.327 452.143 281.358 452.921 281.544C453.7 281.73 454.434 282.067 455.082 282.537C455.73 283.008 456.279 283.601 456.698 284.283C457.116 284.966 457.397 285.724 457.523 286.515C457.941 289.146 458.339 291.639 458.339 291.639L467.326 290.205C467.443 290.186 467.562 290.191 467.678 290.218C467.793 290.246 467.902 290.296 467.998 290.366C468.094 290.436 468.175 290.524 468.237 290.625C468.299 290.727 468.34 290.839 468.358 290.956C468.494 291.803 468.695 293.071 468.83 293.918C468.849 294.036 468.845 294.155 468.817 294.271C468.789 294.386 468.739 294.495 468.669 294.591C468.6 294.687 468.511 294.769 468.41 294.83C468.309 294.892 468.197 294.934 468.079 294.952L459.093 296.387L459.646 299.857L461.436 299.571C461.673 299.534 461.914 299.592 462.108 299.733C462.302 299.874 462.432 300.086 462.469 300.323L462.941 303.286C462.96 303.403 462.955 303.523 462.927 303.638C462.9 303.754 462.849 303.862 462.78 303.958C462.71 304.054 462.622 304.135 462.521 304.197C462.419 304.259 462.307 304.3 462.19 304.319L460.4 304.604L460.953 308.077L465.424 307.363C465.541 307.345 465.661 307.349 465.776 307.377C465.891 307.405 466 307.455 466.096 307.525C466.192 307.595 466.273 307.683 466.335 307.784C466.397 307.885 466.438 307.998 466.457 308.115C466.592 308.962 466.793 310.23 466.929 311.077C466.947 311.194 466.943 311.314 466.915 311.429C466.887 311.544 466.837 311.653 466.767 311.749C466.697 311.845 466.609 311.927 466.508 311.989C466.407 312.05 466.295 312.092 466.178 312.11L461.707 312.823L462.726 319.226ZM472.581 381.068C469.986 381.482 467.572 382.657 465.644 384.444C463.717 386.231 462.362 388.55 461.751 391.108C461.14 393.665 461.301 396.347 462.213 398.813C463.125 401.279 464.747 403.419 466.875 404.963C469.002 406.506 471.539 407.384 474.165 407.484C476.791 407.585 479.388 406.904 481.627 405.527C483.866 404.151 485.647 402.141 486.744 399.751C487.842 397.362 488.207 394.701 487.793 392.104C487.236 388.623 485.321 385.505 482.469 383.436C479.617 381.367 476.061 380.515 472.581 381.068Z" fill="#49264E"/>
<mask id="mask6_173_8520" style="mask-type:luminance" maskUnits="userSpaceOnUse" x="448" y="281" width="54" height="140">
<path d="M462.724 319.226L470.534 329.51L474.164 352.257C474.785 356.148 476.292 359.845 478.569 363.061C480.847 366.276 483.833 368.924 487.296 370.799C490.89 372.736 493.989 375.477 496.352 378.808C498.715 382.139 500.277 385.971 500.918 390.005C503.227 404.498 493.343 418.141 478.862 420.45C464.38 422.759 450.747 412.871 448.439 398.379C447.794 394.346 448.087 390.217 449.297 386.316C450.507 382.414 452.599 378.845 455.412 375.885C458.121 373.023 460.136 369.577 461.3 365.811C462.465 362.046 462.748 358.063 462.128 354.171C459.821 339.672 456.714 320.179 456.714 320.179L450.543 281.454C451.334 281.328 452.141 281.359 452.919 281.545C453.698 281.731 454.432 282.068 455.08 282.538C455.728 283.009 456.277 283.602 456.696 284.284C457.115 284.967 457.395 285.725 457.521 286.516C457.939 289.147 458.337 291.64 458.337 291.64L467.324 290.206C467.441 290.187 467.561 290.192 467.676 290.219C467.791 290.247 467.9 290.297 467.996 290.367C468.092 290.437 468.173 290.525 468.235 290.626C468.297 290.728 468.338 290.84 468.357 290.957C468.492 291.804 468.693 293.072 468.829 293.919C468.847 294.037 468.843 294.156 468.815 294.272C468.787 294.387 468.737 294.496 468.667 294.592C468.598 294.688 468.51 294.77 468.408 294.831C468.307 294.893 468.195 294.935 468.077 294.953L459.091 296.387L459.644 299.858L461.434 299.572C461.671 299.535 461.912 299.593 462.106 299.734C462.3 299.875 462.43 300.087 462.467 300.324L462.939 303.287C462.958 303.404 462.953 303.524 462.925 303.639C462.898 303.755 462.847 303.863 462.778 303.959C462.708 304.055 462.62 304.136 462.519 304.198C462.417 304.26 462.305 304.301 462.188 304.32L460.398 304.605L460.951 308.078L465.422 307.364C465.539 307.346 465.659 307.35 465.774 307.378C465.889 307.406 465.998 307.456 466.094 307.526C466.19 307.596 466.271 307.684 466.333 307.785C466.395 307.886 466.436 307.999 466.455 308.116C466.59 308.963 466.792 310.231 466.927 311.078C466.945 311.195 466.941 311.315 466.913 311.43C466.885 311.545 466.835 311.654 466.765 311.75C466.695 311.846 466.607 311.928 466.506 311.99C466.405 312.051 466.293 312.093 466.176 312.111L461.705 312.824L462.724 319.226ZM472.579 381.069C469.984 381.483 467.57 382.658 465.642 384.445C463.715 386.232 462.36 388.551 461.749 391.109C461.138 393.666 461.299 396.348 462.211 398.814C463.123 401.28 464.745 403.42 466.873 404.964C469 406.507 471.538 407.385 474.163 407.485C476.789 407.586 479.386 406.905 481.625 405.528C483.864 404.152 485.645 402.142 486.742 399.752C487.84 397.363 488.205 394.702 487.791 392.105C487.234 388.624 485.319 385.506 482.467 383.437C479.615 381.368 476.059 380.516 472.579 381.069Z" fill="white"/>
</mask>
<g mask="url(#mask6_173_8520)">
<path fill-rule="evenodd" clip-rule="evenodd" d="M459.087 296.393L458.336 291.648L467.323 290.213C467.44 290.195 467.56 290.199 467.675 290.227C467.79 290.255 467.899 290.305 467.995 290.375C468.091 290.445 468.172 290.533 468.234 290.634C468.296 290.735 468.337 290.848 468.356 290.965L468.828 293.927C468.846 294.044 468.842 294.164 468.814 294.28C468.786 294.395 468.736 294.504 468.666 294.6C468.597 294.696 468.509 294.777 468.407 294.839C468.306 294.901 468.194 294.942 468.076 294.961L459.09 296.395L459.087 296.393ZM460.397 304.608L459.646 299.863L461.436 299.578C461.672 299.54 461.914 299.599 462.108 299.74C462.301 299.881 462.431 300.093 462.469 300.329L462.941 303.292C462.959 303.41 462.955 303.529 462.927 303.645C462.899 303.76 462.849 303.869 462.779 303.965C462.709 304.06 462.621 304.142 462.52 304.203C462.419 304.265 462.307 304.306 462.19 304.325L460.399 304.61L460.397 304.608ZM461.706 312.824L460.955 308.081L465.426 307.367C465.543 307.348 465.663 307.353 465.778 307.381C465.893 307.408 466.002 307.459 466.098 307.528C466.194 307.598 466.275 307.686 466.337 307.788C466.399 307.889 466.44 308.001 466.459 308.119L466.931 311.08C466.949 311.198 466.945 311.317 466.917 311.433C466.889 311.548 466.839 311.657 466.769 311.753C466.699 311.849 466.611 311.93 466.51 311.992C466.409 312.054 466.297 312.096 466.18 312.114L461.709 312.827L461.706 312.824ZM472.581 381.07L462.725 319.227L470.535 329.51L474.166 352.257C474.787 356.149 476.294 359.845 478.571 363.061C480.848 366.276 483.834 368.924 487.298 370.8C490.892 372.736 493.991 375.477 496.353 378.808C498.716 382.139 500.279 385.971 500.919 390.005C503.228 404.499 493.345 418.141 478.863 420.45L476.771 407.321C480.183 406.693 483.214 404.754 485.216 401.92C487.219 399.085 488.033 395.579 487.487 392.15C486.94 388.722 485.076 385.644 482.291 383.573C479.507 381.503 476.024 380.604 472.586 381.07H472.581Z" fill="#49264E"/>
</g>
<path d="M462.726 319.226L470.536 329.509L474.166 352.256C474.787 356.147 476.294 359.844 478.571 363.06C480.849 366.275 483.835 368.923 487.298 370.798C490.892 372.735 493.991 375.476 496.354 378.807C498.716 382.138 500.279 385.97 500.92 390.004C503.229 404.497 493.345 418.14 478.864 420.449C464.382 422.758 450.749 412.871 448.441 398.378C447.796 394.345 448.089 390.216 449.299 386.315C450.508 382.413 452.601 378.844 455.414 375.884C458.123 373.022 460.138 369.576 461.302 365.811C462.467 362.045 462.75 358.062 462.13 354.17C459.822 339.671 456.716 320.178 456.716 320.178L450.545 281.453C451.336 281.327 452.143 281.358 452.921 281.544C453.7 281.73 454.434 282.067 455.082 282.537C455.73 283.008 456.279 283.601 456.698 284.283C457.116 284.966 457.397 285.724 457.523 286.515C457.941 289.146 458.339 291.639 458.339 291.639L467.326 290.205C467.443 290.186 467.562 290.191 467.678 290.218C467.793 290.246 467.902 290.296 467.998 290.366C468.094 290.436 468.175 290.524 468.237 290.625C468.299 290.727 468.34 290.839 468.358 290.956C468.494 291.803 468.695 293.071 468.83 293.918C468.849 294.036 468.845 294.155 468.817 294.271C468.789 294.386 468.739 294.495 468.669 294.591C468.6 294.687 468.511 294.769 468.41 294.83C468.309 294.892 468.197 294.934 468.079 294.952L459.093 296.387L459.646 299.857L461.436 299.571C461.673 299.534 461.914 299.592 462.108 299.733C462.302 299.874 462.432 300.086 462.469 300.323L462.941 303.286C462.96 303.403 462.955 303.523 462.927 303.638C462.9 303.754 462.849 303.862 462.78 303.958C462.71 304.054 462.622 304.135 462.521 304.197C462.419 304.259 462.307 304.3 462.19 304.319L460.4 304.604L460.953 308.077L465.424 307.363C465.541 307.345 465.661 307.349 465.776 307.377C465.891 307.405 466 307.455 466.096 307.525C466.192 307.595 466.273 307.683 466.335 307.784C466.397 307.885 466.438 307.998 466.457 308.115C466.592 308.962 466.793 310.23 466.929 311.077C466.947 311.194 466.943 311.314 466.915 311.429C466.887 311.544 466.837 311.653 466.767 311.749C466.697 311.845 466.609 311.927 466.508 311.989C466.407 312.05 466.295 312.092 466.178 312.11L461.707 312.823L462.726 319.226ZM472.581 381.068C469.986 381.482 467.572 382.657 465.644 384.444C463.717 386.231 462.362 388.55 461.751 391.108C461.14 393.665 461.301 396.347 462.213 398.813C463.125 401.279 464.747 403.419 466.875 404.963C469.002 406.506 471.539 407.384 474.165 407.484C476.791 407.585 479.388 406.904 481.627 405.527C483.866 404.151 485.647 402.141 486.744 399.751C487.842 397.362 488.207 394.701 487.793 392.104C487.236 388.623 485.321 385.505 482.469 383.436C479.617 381.367 476.061 380.515 472.581 381.068Z" stroke="#49264E" stroke-width="1.88802" stroke-linecap="round" stroke-linejoin="round"/>
<path d="M23.6777 422.041H533.332M192.932 433H362.413M170.648 433H128.119M428.892 433H386.367" stroke="#49264E" stroke-width="4.40538" stroke-linecap="round" stroke-linejoin="round"/>
</svg>
