<svg width="32" height="32" viewBox="0 0 32 32" fill="none" xmlns="http://www.w3.org/2000/svg">
<path fill-rule="evenodd" clip-rule="evenodd" d="M13.874 29.8721C6.22217 29.8721 0.00195312 23.6518 0.00195312 16C0.00195312 8.34822 6.22217 2.12793 13.874 2.12793C17.7259 2.12793 21.3176 3.66352 23.9723 6.47433C24.1066 6.62566 24.0917 6.79514 24.0059 6.91835L24.8201 7.98252C24.9753 7.90346 25.177 7.91978 25.2998 8.11392C26.9134 10.4303 27.7463 13.1631 27.7463 15.9999C27.7461 23.6518 21.5258 29.8721 13.874 29.8721ZM13.874 27.0093C7.8098 27.0093 2.86481 22.0642 2.86481 16C2.86481 9.93585 7.8098 4.99078 13.874 4.99078C16.7629 4.99078 19.4957 6.10988 21.5518 8.114C21.7171 8.27714 21.6913 8.4718 21.5838 8.60275L22.6145 9.88196C22.7718 9.78999 22.9891 9.79884 23.1133 9.98789C27.7923 17.1081 22.7145 27.0093 13.874 27.0093Z" fill="#CF8772"/>
<path fill-rule="evenodd" clip-rule="evenodd" d="M14.2382 23.131C14.0821 23.131 13.952 23.0269 13.8999 22.8968C13.8739 22.8448 11.6356 17.0669 8.17406 14.8806C7.49736 14.4642 6.97694 14.0218 7.18511 13.0327C7.39328 12.0698 8.04399 11.5232 9.21513 11.2629C11.2972 10.8204 13.5355 14.0477 14.3684 15.3752C17.2833 11.1328 23.1132 4.47 31.5978 3.68922C32.0072 3.64123 32.1585 4.24795 31.78 4.41796C31.6499 4.47 19.5215 10.0137 14.6025 22.9229C14.5245 23.0529 14.3944 23.131 14.2382 23.131Z" fill="#49264E"/>
</svg>
